<svg version="1" xmlns="http://www.w3.org/2000/svg" width="1653.333" height="1653.333" viewBox="0 0 1240.000000 1240.000000"><path d="M614.9 173.7c-3.4 2.5-6 4.1-8.9 5.5-1.4.7-2.7 1.5-3 1.9-.3.3-1.8 1.4-3.5 2.3-1.6.9-4.3 2.5-6 3.6-1.6 1.1-3.7 2.3-4.5 2.7-.8.3-1.7.9-2 1.2-.3.3-1.9 1.3-3.5 2.2-1.7.9-12.7 7.5-24.5 14.7-18.2 11.1-25.4 15.4-40.8 24.7-8.2 4.9-51.8 31.3-53.6 32.5-1.3.8-5.3 3.2-8.8 5.3-3.4 2-8 4.7-10 6-2 1.2-9.7 5.8-17 10.1-7.3 4.4-13.4 8.3-13.6 8.8-.2.4-1.2.8-2.2.8-1 0-2 .4-2.2.9-.3.8-3.3 2.7-14.3 9.1-1.6 1-9.3 5.6-17 10.4-7.7 4.7-16.7 10.1-20 12.1-3.3 1.9-7.8 4.6-10 6-2.2 1.4-4.7 2.8-5.5 3.2-.8.3-1.7 1-2 1.3-.3.4-1.7 1.3-3.2 2.1-1.5.8-6.7 3.8-11.5 6.8l-8.8 5.4-79.8.1c-44 .1-80.4-.2-81-.6-1.1-.6-1.4-16.5-.3-17.5.3-.3 35.5-.5 78.3-.5 72.5 0 77.9-.1 80.3-1.7 1.4-1 7.2-4.4 13-7.7 5.8-3.2 10.7-6.2 10.8-6.6.2-.4.8-.8 1.3-.8s3.9-1.8 7.5-4 6.8-4 7-4c.2 0 3.2-1.8 6.6-4l6.3-4H157l-.1-2.8c0-1.5-.1-7.7-.1-13.8l-.1-11h-54.2c-29.9.1-54.7.4-55.1.8-.4.4-.7 6.6-.7 13.8l.1 13H.1L0 634c-.1 317.5 0 332 1.7 332.1 1 0 17.1 0 35.8-.1 18.7 0 34.7-.1 35.5-.1.8.1 6.2.1 12 0h12c.8.1 6.2.1 12 0h12c.8 0 4.9.1 9 .2 4.1 0 8 0 8.5-.1.6-.1 1.2-.2 1.5 0 .5.2 116.2.3 122 .1 3-.1 23.4-.2 26.5-.2 30.8.7 42.8.3 52.1-1.6 1.6-.3 4-.7 5.4-.8 1.4-.2 2.5-.4 2.5-.5 0-.1 1.4-.3 3-.5 3.5-.3 9-1.2 16-2.5 2.8-.5 7-1.2 9.5-1.5 2.5-.3 5.2-.7 6-1 .8-.2 3.1-.6 5-.9 1.9-.3 4.4-.7 5.5-1 1.1-.2 4-.7 6.5-1 2.5-.3 5.6-.8 7-1.1 4.5-.9 13.4-2.4 17.5-3 2.2-.3 9.2-1.4 15.5-2.6 6.3-1.1 13.3-2.2 15.5-2.5 2.2-.2 6.3-.9 9-1.4 2.8-.6 6.6-1.2 8.5-1.4 1.9-.3 5-.7 6.8-1 1.7-.3 4.4-.8 6-1 1.5-.3 6.8-1.2 11.7-2 5-.9 10.6-1.7 12.5-2 1.9-.2 4.6-.7 6-1 1.4-.2 4.3-.7 6.5-1 2.2-.3 5.1-.8 6.5-1.1 1.4-.3 4.5-.8 7-1.1 2.5-.3 5.2-.7 6.1-1 .9-.3 3.4-.7 5.5-.9 2-.3 5.1-.8 6.8-1.1 1.7-.4 4.1-.7 5.4-.7 1.2-.1 2.2-.3 2.2-.7 0-.3 1.5-.6 3.3-.6 2.6-.1 21.1-3.1 30.7-5 1.4-.2 3.9-.7 5.5-.9 5.1-.8 7.5-1.4 8.7-2.1.7-.4.8-.3.4.4-.5.8.1.8 2.4.1 2.8-1 10-.8 16.5.6 1.6.3 4.8.8 7.2 1 2.3.2 4.6.6 5 .8.4.3 2.8.8 5.3 1.1 2.5.3 5.6.8 7 1.1 1.4.3 4.1.7 6 1 1.9.2 3.5.4 3.5.5 0 .1.9.3 2 .5 1.1.1 3.8.5 6 .9 2.2.3 5.1.8 6.5 1 1.4.2 5.9 1 10 1.6 4.1.7 8.4 1.4 9.5 1.6 2.4.5 12.5 2.1 18 2.9 4 .6 5.8 1 10.5 1.9 1.4.3 4.2.8 6.2 1 2.1.3 5.3.8 7 1.1 7.6 1.2 9.6 1.5 15.3 2.4 3.3.6 8 1.3 10.5 1.7 4.6.6 7.1 1.1 8 1.4.3.1.8.2 1.2.2.3-.1 4.6.6 9.5 1.4 4.8.8 9.9 1.7 11.3 1.9 5.9 1 9.8 1.6 15 2.5 3 .6 6.9 1.2 8.5 1.4 1.7.3 4.1.7 5.5 1 1.4.3 4.4.8 6.5 1 4.4.5 8.6 1.3 12.5 2.2 1.4.4 4.2.8 6.3 1 2.1.2 4.6.5 5.5.8.9.3 4 .8 6.7 1.1 2.8.4 5.7.8 6.5 1 .8.2 3.1.7 5 1 1.9.3 6 1 9 1.5s7.3 1.2 9.5 1.5c2.2.3 4.7.7 5.5.9 7.3 1.5 14.5 1.9 33 1.8 11.8 0 21.7-.2 22-.3.3-.1.9 0 1.5.1.5.1 7.3.1 15 0 7.7 0 14.9-.1 16 0 8.9.1 113.2.1 114 0 .6-.1 1.3-.2 1.8-.1.4.2 3 .2 5.7.2 2.8 0 5.3 0 5.8-.2.4-.1 1.1 0 1.7.1 1.3.2 15.7.2 17 0 .6-.1 1.3-.2 1.8-.1.4.2 3 .2 5.7.2 2.8 0 5.3 0 5.8-.2.4-.1 1.1 0 1.7.1.5.1 7.3.1 15 0 7.7 0 14.7-.1 15.5-.1.8 0 15 .1 31.5.2l30 .2.1-23.9c.1-13.1.2-24.4.4-24.9.1-.6.1-1.2 0-1.5-.6-1.5-.5-44.8.2-46.1.4-.9.4-1.9.1-2.3-.9-.9-1-203.7-.1-205.7.4-.9.4-1.9.1-2.3-.9-.9-1-43.8-.1-45.7.4-.9.4-1.9.1-2.3-.4-.3-.7-70-.7-154.9l-.1-154.2-23.2-.3-23.2-.2-.3-13.8-.3-13.7-54.7-.1H1081V302H975.4c-76.7 0-105.3.3-104.8 1.1.3.6 2.3 1.9 4.3 2.8 2 .9 5.5 2.9 7.8 4.4 2.4 1.5 4.7 2.7 5.3 2.7.5 0 1 .4 1 1 0 .5.4 1 .9 1 .8 0 15.1 8 16.1 9 .5.5 3.9 2.5 10 5.7 1.9 1 3.7 2.1 4 2.4 2.3 2.6 9.3 2.8 81.5 2.8h77.3c2.1.1 2.2.4 2.2 9.1 0 6.5-.3 9-1.2 9.1-.7 0-37 .2-80.7.2l-79.4.2-9.1-5.4c-5-3-9.4-5.9-9.7-6.4-.3-.5-.8-.7-1-.6-.2.2-2.9-1.3-5.9-3.2-3-1.9-6.2-3.8-7-4.2-.8-.4-3.3-1.9-5.5-3.2-2.2-1.4-4.8-2.8-5.7-3.2-1-.3-1.8-.8-1.8-1.2 0-.3-2.1-1.8-4.7-3.1-2.6-1.4-5.2-2.8-5.8-3.3-1.9-1.4-23.7-14.7-24.2-14.7-.2 0-2.4-1.4-4.8-3-2.4-1.7-4.6-3-5-3-.4 0-2.6-1.4-5-3-2.4-1.7-4.8-3-5.4-3-.6 0-1.1-.4-1.1-.9s-.8-1.1-1.7-1.4c-1-.4-3.5-1.6-5.5-2.9-2-1.3-10.4-6.3-18.5-11.2-13.8-8.3-17.1-10.3-24.8-15.2-1.6-1-3.9-2.4-5-3-4.4-2.4-7-3.9-7.5-4.5-.4-.4-15-9.3-23.8-14.4-12-7-21.8-13.1-22-13.7-.2-.4-.8-.8-1.3-.8s-4.6-2.3-9-5c-4.4-2.8-8.5-5-9-5s-.9-.5-.9-1c0-.6-.5-1-1-1-.6 0-4.6-2.3-9-5-4.4-2.8-8.4-5-9-5-.5 0-1-.5-1-1 0-.6-.5-1-1.1-1-.6 0-3-1.4-5.4-3-2.4-1.7-4.6-3-5-3-.4 0-2.6-1.4-5-3-2.4-1.7-4.6-3-4.9-3-.3 0-3.7-2-7.5-4.5s-7.4-4.5-7.9-4.5-1.5-.6-2.1-1.4c-1.1-1.3-11-6.6-12.3-6.6-.3 0-1.6.8-2.9 1.7zM494.8 334.9c2.1.1 2.2.5 2.2 9.1s-.1 9-2.2 9.1c-6.8.3-94.5.4-95.5.1-.8-.2-1.1-3.3-1.1-9.2v-8.9l3.1-.3c2.5-.2 83.8-.1 93.5.1zm173.2 1.7c.5 1.6.5 10.4.1 15.6-.1 1-10.6 1.3-49.4 1.3l-49.2-.1-.1-9.2v-9.1l5.5-.3c3.1-.2 25.1-.2 49-.2 41.4.2 43.5.3 44.1 2zm170.7-1.2c1.1 1 1 16.7-.1 17.3-1.8 1.2-97.6.9-97.7-.2-.1-1.4-.1-14.7 0-16.5.1-1.3 6.1-1.5 48.7-1.3 26.7 0 48.8.4 49.1.7z"/><path d="M607 940.6c-4.1.8-9.1 1.6-11 1.9-2 .3-4.7.7-6 1-1.3.3-4.2.7-6.5 1-6.4 1-9.6 1.5-15.5 2.6-3 .5-7.3 1.2-9.5 1.5-7.3 1-9 1.3-9 1.4 0 .3-3.8.9-8 1.5-2.2.2-5.3.7-7 1-1.6.3-4.3.7-6 1-1.6.3-4.1.7-5.5 1-1.4.3-4.3.7-6.5.9-2.2.2-4.7.6-5.5.9-1.4.5-5.3 1.2-12 2.1-5.8.8-10.7 1.6-13 2.1-1.4.3-4.1.8-6 1-1.9.2-4.6.7-6 1-1.3.2-3.9.6-5.7.7-1.8.1-3.3.6-3.3 1 0 .5-1.1.6-2.4.4-1.3-.2-2.7-.2-3 .2-.4.3-1.9.7-3.4.8-2.4.2-5.4.6-13.2 2-1.4.2-5.4.9-9 1.4-10.3 1.7-12.2 2-18 3-3 .5-6.8 1.1-8.5 1.3-1.6.3-6.1 1-9.8 1.7-3.7.7-7.1 1-7.4.6-.3-.3-1.1-.2-1.7.3-.6.5-3.1 1.2-5.6 1.5-2.5.2-4.5.5-4.5.6 0 .2-3.6.9-9 1.6-2.7.3-5.2.7-5.5.9-.3.2-2.8.6-5.5.9-5.8.7-14.9 2.3-18.5 3.3-1.4.4-76.3.8-166.5 1-90.2.2-164.9.4-166 .4-1.1.1-2.4 0-3-.1-.5-.1-1.8-.2-2.7-.1-1.6.1-1.7 3.1-1.5 41.8l.2 41.8 617.5.1c339.6 0 618-.1 618.5-.3 1.2-.4 1.5-81.7.3-82.8-.4-.4-76.2-.8-168.5-.9-92.3-.1-168.8-.5-169.9-.8-2-.6-6.8-1.5-11.9-2.2-5-.8-10.3-1.7-12.5-2.1-1.4-.3-4.1-.7-6-1-5.2-.7-9.2-1.4-12-1.9-2.9-.5-26.5-4.4-30.7-5-1.5-.3-3.7-.7-4.8-.9-1.1-.3-4-.8-6.5-1.1-2.5-.3-5.4-.8-6.5-1-6.3-1.2-11.4-2-14-2.1-1.6-.2-3.7-.6-4.6-.9-.9-.4-2-.6-2.5-.5-.5.1-2-.1-3.4-.4-1.4-.3-4.3-.9-6.5-1.1-2.2-.3-5.3-.8-7-1.1-9.1-1.6-12.9-2.2-17.5-2.9-1.9-.3-4.4-.7-5.5-1-1.1-.2-4.2-.7-7-1-2.7-.4-5.9-.9-6.9-1.3-1.1-.3-3.3-.7-5-.8-1.7-.2-8.7-1.3-15.6-2.5s-13.8-2.3-15.5-2.5c-3.1-.4-7-1-11.5-2-1.4-.3-4.1-.7-6-1-1.9-.2-4.6-.7-6-.9-1.3-.3-4.2-.8-6.5-1.2-2.2-.3-6.5-1-9.5-1.5-8.4-1.4-11.2-1.8-14.5-2.3-1.6-.3-3-.5-3-.6 0-.1-2.1-.3-4.8-.6-2.6-.2-5.7-.8-7-1.3-3.2-1.2-12.1-1-20.7.5z"/></svg>