<svg width="16" height="16" viewBox="0 0 16 16" fill="none" xmlns="http://www.w3.org/2000/svg">
<g clip-path="url(#clip0)">
<path d="M7.04606 0C3.16097 0 0 3.16097 0 7.04606C0 10.9314 3.16097 14.0921 7.04606 14.0921C10.9314 14.0921 14.0921 10.9314 14.0921 7.04606C14.0921 3.16097 10.9314 0 7.04606 0ZM7.04606 12.7913C3.87816 12.7913 1.30081 10.214 1.30081 7.04609C1.30081 3.87819 3.87816 1.30081 7.04606 1.30081C10.214 1.30081 12.7913 3.87816 12.7913 7.04606C12.7913 10.214 10.214 12.7913 7.04606 12.7913Z" fill="#ADADAD"/>
<path d="M16.476 15.5558L12.747 11.8268C12.4929 11.5727 12.0814 11.5727 11.8273 11.8268C11.5732 12.0807 11.5732 12.4926 11.8273 12.7465L15.5563 16.4755C15.6833 16.6025 15.8496 16.6661 16.0161 16.6661C16.1824 16.6661 16.3489 16.6025 16.476 16.4755C16.7301 16.2216 16.7301 15.8097 16.476 15.5558Z" fill="#ADADAD"/>
</g>
<defs>
<clipPath id="clip0">
<rect width="16" height="16" fill="white"/>
</clipPath>
</defs>
</svg>
