<svg width="1440" height="150" viewBox="0 0 1440 150" fill="none" xmlns="http://www.w3.org/2000/svg" xmlns:xlink="http://www.w3.org/1999/xlink">
<rect width="1440" height="150" fill="#C9C9CB"/>
<rect width="1440" height="150" fill="url(#pattern0)"/>
<rect x="656" y="46" width="127" height="58" fill="#FCFCFC"/>
<path d="M681.728 76.488H679.936V81H677.36V69.8H679.936V74.328H681.792L684.736 69.8H687.472L683.808 75.208L687.584 81H684.64L681.728 76.488ZM692.513 81.128C691.607 81.128 690.791 80.9413 690.065 80.568C689.351 80.184 688.791 79.656 688.385 78.984C687.98 78.312 687.777 77.5493 687.777 76.696C687.777 75.8427 687.98 75.08 688.385 74.408C688.791 73.736 689.351 73.2133 690.065 72.84C690.791 72.456 691.607 72.264 692.513 72.264C693.42 72.264 694.231 72.456 694.945 72.84C695.66 73.2133 696.22 73.736 696.625 74.408C697.031 75.08 697.233 75.8427 697.233 76.696C697.233 77.5493 697.031 78.312 696.625 78.984C696.22 79.656 695.66 80.184 694.945 80.568C694.231 80.9413 693.42 81.128 692.513 81.128ZM692.513 79.08C693.153 79.08 693.676 78.8667 694.081 78.44C694.497 78.0027 694.705 77.4213 694.705 76.696C694.705 75.9707 694.497 75.3947 694.081 74.968C693.676 74.5307 693.153 74.312 692.513 74.312C691.873 74.312 691.345 74.5307 690.929 74.968C690.513 75.3947 690.305 75.9707 690.305 76.696C690.305 77.4213 690.513 78.0027 690.929 78.44C691.345 78.8667 691.873 79.08 692.513 79.08ZM698.95 72.392H701.43V75.752H705.174V72.392H707.67V81H705.174V77.784H701.43V81H698.95V72.392ZM713.851 77.736H712.555V81H710.059V72.392H712.555V75.736H713.899L716.235 72.392H718.891L715.883 76.52L719.099 81H716.155L713.851 77.736ZM728.465 72.392L724.577 81.528C724.182 82.52 723.691 83.2187 723.105 83.624C722.529 84.0293 721.83 84.232 721.009 84.232C720.561 84.232 720.118 84.1627 719.681 84.024C719.243 83.8853 718.886 83.6933 718.609 83.448L719.521 81.672C719.713 81.8427 719.931 81.976 720.177 82.072C720.433 82.168 720.683 82.216 720.929 82.216C721.27 82.216 721.547 82.1307 721.761 81.96C721.974 81.8 722.166 81.528 722.337 81.144L722.369 81.064L718.641 72.392H721.217L723.633 78.232L726.065 72.392H728.465ZM734.741 72.264C735.541 72.264 736.266 72.4507 736.917 72.824C737.578 73.1867 738.095 73.704 738.469 74.376C738.842 75.0373 739.029 75.8107 739.029 76.696C739.029 77.5813 738.842 78.36 738.469 79.032C738.095 79.6933 737.578 80.2107 736.917 80.584C736.266 80.9467 735.541 81.128 734.741 81.128C733.642 81.128 732.778 80.7813 732.149 80.088V84.104H729.653V72.392H732.037V73.384C732.655 72.6373 733.557 72.264 734.741 72.264ZM734.309 79.08C734.949 79.08 735.471 78.8667 735.877 78.44C736.293 78.0027 736.501 77.4213 736.501 76.696C736.501 75.9707 736.293 75.3947 735.877 74.968C735.471 74.5307 734.949 74.312 734.309 74.312C733.669 74.312 733.141 74.5307 732.725 74.968C732.319 75.3947 732.117 75.9707 732.117 76.696C732.117 77.4213 732.319 78.0027 732.725 78.44C733.141 78.8667 733.669 79.08 734.309 79.08ZM744.874 81.128C743.957 81.128 743.13 80.9413 742.394 80.568C741.669 80.184 741.098 79.656 740.682 78.984C740.277 78.312 740.074 77.5493 740.074 76.696C740.074 75.8427 740.277 75.08 740.682 74.408C741.098 73.736 741.669 73.2133 742.394 72.84C743.13 72.456 743.957 72.264 744.874 72.264C745.781 72.264 746.57 72.456 747.242 72.84C747.925 73.2133 748.421 73.752 748.73 74.456L746.794 75.496C746.346 74.7067 745.701 74.312 744.858 74.312C744.207 74.312 743.669 74.5253 743.242 74.952C742.815 75.3787 742.602 75.96 742.602 76.696C742.602 77.432 742.815 78.0133 743.242 78.44C743.669 78.8667 744.207 79.08 744.858 79.08C745.711 79.08 746.357 78.6853 746.794 77.896L748.73 78.952C748.421 79.6347 747.925 80.168 747.242 80.552C746.57 80.936 745.781 81.128 744.874 81.128ZM754.775 75.144C755.895 75.1547 756.743 75.4053 757.319 75.896C757.895 76.3867 758.183 77.0907 758.183 78.008C758.183 78.968 757.858 79.7093 757.207 80.232C756.556 80.7547 755.634 81.016 754.439 81.016L750.247 81V72.392H752.727V75.144H754.775ZM759.111 72.392H761.591V81H759.111V72.392ZM754.215 79.24C754.695 79.2507 755.063 79.1493 755.319 78.936C755.575 78.7227 755.703 78.4027 755.703 77.976C755.703 77.56 755.575 77.256 755.319 77.064C755.074 76.872 754.706 76.7707 754.215 76.76L752.727 76.744V79.24H754.215Z" fill="#2F4365"/>
<defs>
<pattern id="pattern0" patternContentUnits="objectBoundingBox" width="1" height="1">
<use xlink:href="#image0" transform="translate(0 -6.39476) scale(0.000498753 0.00478803)"/>
</pattern>
<image id="image0" width="2005" height="2880" xlink:href=""/>
</defs>
</svg>
