<svg width="167" height="129" viewBox="0 0 167 129" fill="none" xmlns="http://www.w3.org/2000/svg">
<rect width="167" height="128.058" fill="white"/>
<rect y="47.9282" width="167" height="42.3117" fill="#526483"/>
<mask id="mask0" mask-type="alpha" maskUnits="userSpaceOnUse" x="21" y="7" width="125" height="87">
<rect x="21.7175" y="7.48877" width="123.939" height="86.1211" fill="white"/>
</mask>
<g mask="url(#mask0)">
<g filter="url(#filter0_d)">
<rect x="21.7175" y="38.1928" width="123.939" height="55.417" fill="#9EE6CF"/>
<g filter="url(#filter1_d)">
<rect x="21.7175" y="24.3386" width="123.939" height="13.8543" fill="#EBECF0"/>
</g>
<path d="M83.4999 8.23767L108.775 24.3386H58.5057L83.4999 8.23767Z" fill="#EBECF0"/>
<g filter="url(#filter2_d)">
<rect x="25.8364" y="22.4664" width="9.73543" height="71.1435" fill="#EBECF0"/>
</g>
<g filter="url(#filter3_d)">
<rect x="131.428" y="22.4664" width="10.1099" height="71.1435" fill="#EBECF0"/>
</g>
<g filter="url(#filter4_d)">
<rect x="116.451" y="36.3206" width="5.24215" height="57.2892" fill="#EBECF0"/>
</g>
<g filter="url(#filter5_d)">
<rect x="80.879" y="38.1928" width="5.24215" height="55.417" fill="#EBECF0"/>
</g>
<g filter="url(#filter6_d)">
<rect x="45.3073" y="36.3206" width="4.86771" height="57.2892" fill="#EBECF0"/>
</g>
<g filter="url(#filter7_d)">
<rect x="59.9103" y="29.2063" width="10.1099" height="64.4036" fill="#EBECF0"/>
</g>
<g filter="url(#filter8_d)">
<rect x="96.6054" y="29.2063" width="10.1099" height="64.4036" fill="#EBECF0"/>
</g>
<path d="M21.7175 24.3386H25.8364V22.4664H35.9462V24.3386H58.5998" stroke="white" stroke-width="1.12281"/>
<path d="M145.657 23.9641H141.725V22.0919H131.428V23.9641H107.464" stroke="white" stroke-width="1.12281"/>
<g filter="url(#filter9_d)">
<path d="M83.5 8.23767L51.1109 29.0191H44.371" stroke="white" stroke-width="1.12281"/>
</g>
<g filter="url(#filter10_d)">
<path d="M82.7511 8.23767L115.14 29.0191H121.88" stroke="white" stroke-width="1.12281"/>
</g>
<g filter="url(#filter11_d)">
<line x1="96.6054" y1="29.3937" x2="106.715" y2="29.3937" stroke="white" stroke-width="1.12281"/>
</g>
<g filter="url(#filter12_d)">
<line x1="80.879" y1="29.3937" x2="86.1211" y2="29.3937" stroke="white" stroke-width="1.12281"/>
</g>
<g filter="url(#filter13_d)">
<line x1="59.9103" y1="29.3937" x2="70.0202" y2="29.3937" stroke="white" stroke-width="1.12281"/>
</g>
<rect x="87.2443" y="74.5134" width="8.23767" height="9.73543" fill="#536686"/>
<line x1="90.427" y1="74.5134" x2="90.427" y2="84.2489" stroke="#394964" stroke-width="0.374269"/>
<rect x="71.5179" y="74.5134" width="8.23767" height="9.73543" fill="#536686"/>
<line x1="74.7005" y1="74.5134" x2="74.7005" y2="84.2489" stroke="#394964" stroke-width="0.374269"/>
<rect x="50.9237" y="74.5134" width="8.23767" height="9.73543" fill="#536686"/>
<line x1="54.1064" y1="74.5134" x2="54.1064" y2="84.2489" stroke="#394964" stroke-width="0.374269"/>
<rect x="36.3206" y="74.5134" width="8.23767" height="9.73543" fill="#536686"/>
<line x1="39.5033" y1="74.5134" x2="39.5033" y2="84.2489" stroke="#394964" stroke-width="0.374269"/>
<rect x="107.464" y="74.5134" width="8.23767" height="9.73543" fill="#FCF6C1"/>
<line x1="110.647" y1="74.5134" x2="110.647" y2="84.2489" stroke="#43534E" stroke-opacity="0.2" stroke-width="0.374269"/>
<rect x="122.442" y="74.5134" width="8.23767" height="9.73543" fill="#536686"/>
<line x1="125.624" y1="74.5134" x2="125.624" y2="84.2489" stroke="#394964" stroke-width="0.374269"/>
<rect x="87.2443" y="59.1614" width="8.23767" height="9.73543" fill="#536686"/>
<line x1="90.427" y1="59.1614" x2="90.427" y2="68.8969" stroke="#394964" stroke-width="0.374269"/>
<rect x="71.5179" y="59.1614" width="8.23767" height="9.73543" fill="#536686"/>
<line x1="74.7005" y1="59.1614" x2="74.7005" y2="68.8969" stroke="#394964" stroke-width="0.374269"/>
<rect x="50.9237" y="59.1614" width="8.23767" height="9.73543" fill="#536686"/>
<line x1="54.1064" y1="59.1614" x2="54.1064" y2="68.8969" stroke="#394964" stroke-width="0.374269"/>
<rect x="36.3206" y="59.1614" width="8.23767" height="9.73543" fill="#536686"/>
<line x1="39.5033" y1="59.1614" x2="39.5033" y2="68.8969" stroke="#394964" stroke-width="0.374269"/>
<rect x="107.464" y="59.1614" width="8.23767" height="9.73543" fill="#536686"/>
<line x1="110.647" y1="59.1614" x2="110.647" y2="68.8969" stroke="#394964" stroke-width="0.374269"/>
<rect x="122.442" y="59.1614" width="8.23767" height="9.73543" fill="#536686"/>
<line x1="125.624" y1="59.1614" x2="125.624" y2="68.8969" stroke="#394964" stroke-width="0.374269"/>
<rect x="87.2443" y="43.8094" width="8.23767" height="9.73543" fill="#FCF6C1"/>
<line x1="90.427" y1="43.8094" x2="90.427" y2="53.5448" stroke="#43534E" stroke-opacity="0.2" stroke-width="0.374269"/>
<rect x="71.5179" y="43.8094" width="8.23767" height="9.73543" fill="#536686"/>
<line x1="74.7005" y1="43.8094" x2="74.7005" y2="53.5448" stroke="#394964" stroke-width="0.374269"/>
<rect x="50.9237" y="43.8094" width="8.23767" height="9.73543" fill="#536686"/>
<line x1="54.1064" y1="43.8094" x2="54.1064" y2="53.5448" stroke="#394964" stroke-width="0.374269"/>
<rect x="36.3206" y="43.8094" width="8.23767" height="9.73543" fill="#FCF6C1"/>
<line x1="39.5033" y1="43.8094" x2="39.5033" y2="53.5448" stroke="#43534E" stroke-opacity="0.3" stroke-width="0.374269"/>
<rect x="107.464" y="43.8094" width="8.23767" height="9.73543" fill="#536686"/>
<line x1="110.647" y1="43.8094" x2="110.647" y2="53.5448" stroke="#394964" stroke-width="0.374269"/>
<rect x="122.442" y="43.8094" width="8.23767" height="9.73543" fill="#536686"/>
<line x1="125.624" y1="43.8094" x2="125.624" y2="53.5448" stroke="#394964" stroke-width="0.374269"/>
<rect x="21.7175" y="71.1435" width="123.939" height="22.4664" fill="url(#paint0_linear)" fill-opacity="0.3"/>
<path d="M96.6054 93.6098H106.715L108.962 84.9977H94.1715L96.6054 93.6098Z" fill="url(#paint1_linear)" fill-opacity="0.65"/>
<path d="M59.9103 93.6098H70.0202L72.4541 84.9977H57.6637L59.9103 93.6098Z" fill="url(#paint2_linear)" fill-opacity="0.65"/>
<g filter="url(#filter14_dd)">
<path d="M83.5838 89.491L102.222 93.6099H65.1525L83.5838 89.491Z" fill="#EBECF0"/>
</g>
<g filter="url(#filter15_d)">
<path d="M83.5001 88.9294L105.218 94.3587" stroke="white" stroke-width="1.12281"/>
</g>
<g filter="url(#filter16_d)">
<path d="M83.8743 88.9294L62.1568 94.3587" stroke="white" stroke-width="1.12281"/>
</g>
<path d="M25.8364 93.6098H35.5718L37.8184 84.9977H23.5897L25.8364 93.6098Z" fill="url(#paint3_linear)" fill-opacity="0.65"/>
<path d="M131.487 93.6098H141.479L143.785 84.9977H129.182L131.487 93.6098Z" fill="url(#paint4_linear)" fill-opacity="0.65"/>
</g>
</g>
<path d="M25.9775 103.668H24.7619V106.729H23.0144V99.131H24.7619V102.203H26.0209L28.018 99.131H29.874L27.3885 102.8L29.95 106.729H27.9529L25.9775 103.668ZM35.77 105.101H32.2425L31.5696 106.729H29.7679L33.1543 99.131H34.8909L38.2881 106.729H36.443L35.77 105.101ZM35.2165 103.766L34.0117 100.857L32.8069 103.766H35.2165ZM47.1957 105.296V108.303H45.5676V106.729H40.2058V108.303H38.5778L38.5886 105.296H38.8925C39.3484 105.282 39.6704 104.949 39.8585 104.297C40.0466 103.646 40.1624 102.716 40.2058 101.508L40.2927 99.131H46.132V105.296H47.1957ZM41.7579 101.671C41.7218 102.575 41.6458 103.335 41.53 103.95C41.4142 104.558 41.2369 105.007 40.9982 105.296H44.3954V100.564H41.7905L41.7579 101.671ZM51.668 99.131C52.341 99.131 52.9235 99.2432 53.4155 99.4675C53.9148 99.6918 54.2983 100.01 54.566 100.423C54.8337 100.835 54.9676 101.324 54.9676 101.888C54.9676 102.445 54.8337 102.933 54.566 103.353C54.2983 103.766 53.9148 104.084 53.4155 104.308C52.9235 104.525 52.341 104.634 51.668 104.634H50.1377V106.729H48.3793V99.131H51.668ZM51.5704 103.201C52.0986 103.201 52.5002 103.089 52.7751 102.865C53.0501 102.633 53.1876 102.308 53.1876 101.888C53.1876 101.461 53.0501 101.135 52.7751 100.911C52.5002 100.68 52.0986 100.564 51.5704 100.564H50.1377V103.201H51.5704ZM59.8587 106.859C59.07 106.859 58.3572 106.689 57.7205 106.349C57.091 106.009 56.5953 105.542 56.2335 104.949C55.8789 104.348 55.7017 103.675 55.7017 102.93C55.7017 102.185 55.8789 101.515 56.2335 100.922C56.5953 100.321 57.091 99.851 57.7205 99.5109C58.3572 99.1708 59.07 99.0008 59.8587 99.0008C60.6474 99.0008 61.3565 99.1708 61.986 99.5109C62.6155 99.851 63.1112 100.321 63.473 100.922C63.8348 101.515 64.0157 102.185 64.0157 102.93C64.0157 103.675 63.8348 104.348 63.473 104.949C63.1112 105.542 62.6155 106.009 61.986 106.349C61.3565 106.689 60.6474 106.859 59.8587 106.859ZM59.8587 105.361C60.3073 105.361 60.7125 105.26 61.0743 105.057C61.4361 104.847 61.7183 104.558 61.9209 104.189C62.1307 103.82 62.2357 103.4 62.2357 102.93C62.2357 102.46 62.1307 102.04 61.9209 101.671C61.7183 101.302 61.4361 101.016 61.0743 100.813C60.7125 100.604 60.3073 100.499 59.8587 100.499C59.4101 100.499 59.0048 100.604 58.6431 100.813C58.2813 101.016 57.9954 101.302 57.7856 101.671C57.583 102.04 57.4817 102.46 57.4817 102.93C57.4817 103.4 57.583 103.82 57.7856 104.189C57.9954 104.558 58.2813 104.847 58.6431 105.057C59.0048 105.26 59.4101 105.361 59.8587 105.361ZM70.6343 102.767C71.0974 102.905 71.452 103.129 71.698 103.44C71.944 103.751 72.067 104.135 72.067 104.59C72.067 105.263 71.8101 105.788 71.2964 106.164C70.7899 106.541 70.0627 106.729 69.1148 106.729H65.3702V99.131H68.9085C69.7913 99.131 70.4787 99.3011 70.9708 99.6412C71.4628 99.9813 71.7088 100.466 71.7088 101.096C71.7088 101.472 71.6148 101.805 71.4266 102.094C71.2385 102.376 70.9744 102.601 70.6343 102.767ZM67.1177 102.279H68.7566C69.1401 102.279 69.4295 102.203 69.6249 102.051C69.8203 101.892 69.918 101.66 69.918 101.356C69.918 101.059 69.8166 100.831 69.614 100.672C69.4187 100.513 69.1329 100.433 68.7566 100.433H67.1177V102.279ZM69.0496 105.426C69.8745 105.426 70.287 105.101 70.287 104.449C70.287 103.82 69.8745 103.505 69.0496 103.505H67.1177V105.426H69.0496ZM77.137 101.627C78.0632 101.627 78.7723 101.834 79.2643 102.246C79.7636 102.659 80.0133 103.27 80.0133 104.08C80.0133 104.941 79.7383 105.6 79.1884 106.056C78.6457 106.504 77.8787 106.729 76.8874 106.729H73.4576V99.131H75.205V101.627H77.137ZM76.7897 105.426C77.2455 105.426 77.6001 105.314 77.8533 105.09C78.1138 104.865 78.2441 104.54 78.2441 104.113C78.2441 103.324 77.7593 102.93 76.7897 102.93H75.205V105.426H76.7897ZM80.9792 99.131H82.7267V106.729H80.9792V99.131ZM84.6187 99.131H86.3662V104.08L89.9914 99.131H91.6412V106.729H89.9045V101.79L86.2794 106.729H84.6187V99.131ZM88.1245 98.6426C86.7352 98.6426 86.0334 98.0891 86.0189 96.982H87.2237C87.2381 97.5102 87.5384 97.7743 88.1245 97.7743C88.414 97.7743 88.6346 97.7092 88.7866 97.5789C88.9386 97.4415 89.0181 97.2425 89.0254 96.982H90.2302C90.2229 97.5247 90.0456 97.9371 89.6983 98.2193C89.351 98.5015 88.8264 98.6426 88.1245 98.6426ZM103.531 99.131V106.729H101.784V100.564H98.3541V106.729H96.6067V99.131H103.531ZM109.04 106.859C108.251 106.859 107.539 106.689 106.902 106.349C106.272 106.009 105.777 105.542 105.415 104.949C105.06 104.348 104.883 103.675 104.883 102.93C104.883 102.185 105.06 101.515 105.415 100.922C105.777 100.321 106.272 99.851 106.902 99.5109C107.539 99.1708 108.251 99.0008 109.04 99.0008C109.829 99.0008 110.538 99.1708 111.167 99.5109C111.797 99.851 112.292 100.321 112.654 100.922C113.016 101.515 113.197 102.185 113.197 102.93C113.197 103.675 113.016 104.348 112.654 104.949C112.292 105.542 111.797 106.009 111.167 106.349C110.538 106.689 109.829 106.859 109.04 106.859ZM109.04 105.361C109.489 105.361 109.894 105.26 110.256 105.057C110.617 104.847 110.9 104.558 111.102 104.189C111.312 103.82 111.417 103.4 111.417 102.93C111.417 102.46 111.312 102.04 111.102 101.671C110.9 101.302 110.617 101.016 110.256 100.813C109.894 100.604 109.489 100.499 109.04 100.499C108.591 100.499 108.186 100.604 107.824 100.813C107.463 101.016 107.177 101.302 106.967 101.671C106.764 102.04 106.663 102.46 106.663 102.93C106.663 103.4 106.764 103.82 106.967 104.189C107.177 104.558 107.463 104.847 107.824 105.057C108.186 105.26 108.591 105.361 109.04 105.361ZM117.84 99.131C118.513 99.131 119.096 99.2432 119.588 99.4675C120.087 99.6918 120.47 100.01 120.738 100.423C121.006 100.835 121.14 101.324 121.14 101.888C121.14 102.445 121.006 102.933 120.738 103.353C120.47 103.766 120.087 104.084 119.588 104.308C119.096 104.525 118.513 104.634 117.84 104.634H116.31V106.729H114.551V99.131H117.84ZM117.743 103.201C118.271 103.201 118.672 103.089 118.947 102.865C119.222 102.633 119.36 102.308 119.36 101.888C119.36 101.461 119.222 101.135 118.947 100.911C118.672 100.68 118.271 100.564 117.743 100.564H116.31V103.201H117.743ZM127.894 100.564H125.463V106.729H123.727V100.564H121.306V99.131H127.894V100.564ZM133.762 105.101H130.234L129.561 106.729H127.759L131.146 99.131H132.882L136.28 106.729H134.435L133.762 105.101ZM133.208 103.766L132.003 100.857L130.799 103.766H133.208ZM144.124 99.131V106.729H142.387V100.564H139.782L139.728 102.148C139.692 103.227 139.605 104.102 139.467 104.775C139.33 105.441 139.098 105.954 138.773 106.316C138.454 106.671 138.006 106.848 137.427 106.848C137.188 106.848 136.899 106.808 136.559 106.729L136.667 105.242C136.761 105.271 136.866 105.285 136.982 105.285C137.401 105.285 137.695 105.039 137.861 104.547C138.027 104.048 138.132 103.27 138.176 102.214L138.284 99.131H144.124Z" fill="#2F4365"/>
<path d="M25.8712 116.572H23.6818L23.2641 117.583H22.1458L24.2476 112.867H25.3255L27.4342 117.583H26.2889L25.8712 116.572ZM25.5276 115.744L24.7799 113.938L24.0321 115.744H25.5276ZM32.3509 117.583L32.3442 114.76L30.9564 117.084H30.4713L29.0835 114.814V117.583H28.0595V112.867H28.9623L30.7273 115.798L32.4654 112.867H33.3682L33.3749 117.583H32.3509ZM38.8041 112.867L36.7965 116.599C36.6034 116.959 36.3698 117.23 36.0959 117.415C35.8264 117.599 35.5322 117.691 35.2133 117.691C34.9663 117.691 34.7103 117.637 34.4453 117.529L34.7081 116.7C34.8967 116.759 35.0539 116.788 35.1796 116.788C35.3144 116.788 35.4356 116.757 35.5434 116.694C35.6512 116.626 35.75 116.523 35.8399 116.384L35.8803 116.33L34.0209 112.867H35.1864L36.4394 115.4L37.7329 112.867H38.8041ZM41.364 112.867C41.7816 112.867 42.1432 112.937 42.4486 113.076C42.7585 113.215 42.9965 113.413 43.1627 113.669C43.3289 113.925 43.412 114.228 43.412 114.578C43.412 114.924 43.3289 115.227 43.1627 115.488C42.9965 115.744 42.7585 115.941 42.4486 116.081C42.1432 116.215 41.7816 116.283 41.364 116.283H40.4141V117.583H39.3227V112.867H41.364ZM41.3033 115.393C41.6312 115.393 41.8805 115.324 42.0511 115.185C42.2218 115.041 42.3071 114.839 42.3071 114.578C42.3071 114.313 42.2218 114.111 42.0511 113.972C41.8805 113.828 41.6312 113.756 41.3033 113.756H40.4141V115.393H41.3033ZM46.4276 117.664C45.947 117.664 45.5114 117.56 45.1206 117.354C44.7344 117.143 44.429 116.853 44.2044 116.485C43.9844 116.112 43.8743 115.692 43.8743 115.225C43.8743 114.758 43.9844 114.34 44.2044 113.972C44.429 113.599 44.7344 113.31 45.1206 113.103C45.5114 112.892 45.9493 112.786 46.4343 112.786C46.843 112.786 47.2113 112.858 47.5392 113.002C47.8715 113.146 48.15 113.352 48.3745 113.622L47.6739 114.268C47.355 113.9 46.9598 113.716 46.4882 113.716C46.1963 113.716 45.9358 113.781 45.7068 113.911C45.4777 114.037 45.2981 114.215 45.1678 114.444C45.0421 114.673 44.9792 114.933 44.9792 115.225C44.9792 115.517 45.0421 115.777 45.1678 116.007C45.2981 116.236 45.4777 116.415 45.7068 116.545C45.9358 116.671 46.1963 116.734 46.4882 116.734C46.9598 116.734 47.355 116.548 47.6739 116.175L48.3745 116.822C48.15 117.096 47.8715 117.304 47.5392 117.448C47.2068 117.592 46.8363 117.664 46.4276 117.664ZM50.9115 115.683H50.157V117.583H49.0724V112.867H50.157V114.774H50.9385L52.1781 112.867H53.3301L51.7873 115.144L53.3772 117.583H52.1377L50.9115 115.683ZM56.1189 117.664C55.6293 117.664 55.1869 117.558 54.7917 117.347C54.401 117.136 54.0933 116.846 53.8688 116.478C53.6487 116.105 53.5387 115.688 53.5387 115.225C53.5387 114.762 53.6487 114.347 53.8688 113.979C54.0933 113.606 54.401 113.314 54.7917 113.103C55.1869 112.892 55.6293 112.786 56.1189 112.786C56.6084 112.786 57.0485 112.892 57.4393 113.103C57.83 113.314 58.1377 113.606 58.3622 113.979C58.5868 114.347 58.6991 114.762 58.6991 115.225C58.6991 115.688 58.5868 116.105 58.3622 116.478C58.1377 116.846 57.83 117.136 57.4393 117.347C57.0485 117.558 56.6084 117.664 56.1189 117.664ZM56.1189 116.734C56.3973 116.734 56.6488 116.671 56.8734 116.545C57.0979 116.415 57.2731 116.236 57.3989 116.007C57.5291 115.777 57.5942 115.517 57.5942 115.225C57.5942 114.933 57.5291 114.673 57.3989 114.444C57.2731 114.215 57.0979 114.037 56.8734 113.911C56.6488 113.781 56.3973 113.716 56.1189 113.716C55.8404 113.716 55.5889 113.781 55.3643 113.911C55.1398 114.037 54.9624 114.215 54.8321 114.444C54.7064 114.673 54.6435 114.933 54.6435 115.225C54.6435 115.517 54.7064 115.777 54.8321 116.007C54.9624 116.236 55.1398 116.415 55.3643 116.545C55.5889 116.671 55.8404 116.734 56.1189 116.734ZM62.8611 113.756H60.6177L60.6244 117.583H59.5398V112.867H62.8678L62.8611 113.756ZM65.3031 117.664C64.8135 117.664 64.3711 117.558 63.9759 117.347C63.5852 117.136 63.2775 116.846 63.053 116.478C62.8329 116.105 62.7229 115.688 62.7229 115.225C62.7229 114.762 62.8329 114.347 63.053 113.979C63.2775 113.606 63.5852 113.314 63.9759 113.103C64.3711 112.892 64.8135 112.786 65.3031 112.786C65.7926 112.786 66.2328 112.892 66.6235 113.103C67.0142 113.314 67.3219 113.606 67.5464 113.979C67.771 114.347 67.8833 114.762 67.8833 115.225C67.8833 115.688 67.771 116.105 67.5464 116.478C67.3219 116.846 67.0142 117.136 66.6235 117.347C66.2328 117.558 65.7926 117.664 65.3031 117.664ZM65.3031 116.734C65.5815 116.734 65.833 116.671 66.0576 116.545C66.2822 116.415 66.4573 116.236 66.5831 116.007C66.7133 115.777 66.7784 115.517 66.7784 115.225C66.7784 114.933 66.7133 114.673 66.5831 114.444C66.4573 114.215 66.2822 114.037 66.0576 113.911C65.833 113.781 65.5815 113.716 65.3031 113.716C65.0246 113.716 64.7731 113.781 64.5485 113.911C64.324 114.037 64.1466 114.215 64.0163 114.444C63.8906 114.673 63.8277 114.933 63.8277 115.225C63.8277 115.517 63.8906 115.777 64.0163 116.007C64.1466 116.236 64.324 116.415 64.5485 116.545C64.7731 116.671 65.0246 116.734 65.3031 116.734ZM72.882 117.664C72.3925 117.664 71.9501 117.558 71.5549 117.347C71.1641 117.136 70.8565 116.846 70.6319 116.478C70.4118 116.105 70.3018 115.688 70.3018 115.225C70.3018 114.762 70.4118 114.347 70.6319 113.979C70.8565 113.606 71.1641 113.314 71.5549 113.103C71.9501 112.892 72.3925 112.786 72.882 112.786C73.3716 112.786 73.8117 112.892 74.2024 113.103C74.5932 113.314 74.9008 113.606 75.1254 113.979C75.3499 114.347 75.4622 114.762 75.4622 115.225C75.4622 115.688 75.3499 116.105 75.1254 116.478C74.9008 116.846 74.5932 117.136 74.2024 117.347C73.8117 117.558 73.3716 117.664 72.882 117.664ZM72.882 116.734C73.1605 116.734 73.412 116.671 73.6365 116.545C73.8611 116.415 74.0363 116.236 74.162 116.007C74.2923 115.777 74.3574 115.517 74.3574 115.225C74.3574 114.933 74.2923 114.673 74.162 114.444C74.0363 114.215 73.8611 114.037 73.6365 113.911C73.412 113.781 73.1605 113.716 72.882 113.716C72.6036 113.716 72.3521 113.781 72.1275 113.911C71.9029 114.037 71.7255 114.215 71.5953 114.444C71.4695 114.673 71.4066 114.933 71.4066 115.225C71.4066 115.517 71.4695 115.777 71.5953 116.007C71.7255 116.236 71.9029 116.415 72.1275 116.545C72.3521 116.671 72.6036 116.734 72.882 116.734ZM76.303 112.867H80.1093V113.736H77.3876V114.706H78.6945C79.2649 114.706 79.6983 114.825 79.9948 115.063C80.2957 115.301 80.4461 115.645 80.4461 116.094C80.4461 116.566 80.2799 116.932 79.9476 117.192C79.6152 117.453 79.1459 117.583 78.5396 117.583H76.303V112.867ZM78.479 116.775C78.7574 116.775 78.9708 116.721 79.119 116.613C79.2672 116.501 79.3413 116.339 79.3413 116.128C79.3413 115.715 79.0538 115.508 78.479 115.508H77.3876V116.775H78.479ZM85.3686 112.867V117.583H84.2907V113.756H82.6739L82.6402 114.74C82.6177 115.409 82.5638 115.953 82.4785 116.37C82.3932 116.784 82.2494 117.102 82.0473 117.327C81.8497 117.547 81.5713 117.657 81.212 117.657C81.0638 117.657 80.8841 117.632 80.673 117.583L80.7404 116.66C80.7988 116.678 80.8639 116.687 80.9358 116.687C81.1962 116.687 81.3781 116.534 81.4814 116.229C81.5847 115.919 81.6499 115.436 81.6768 114.78L81.7442 112.867H85.3686ZM89.7397 116.572H87.5502L87.1325 117.583H86.0142L88.1161 112.867H89.194L91.3026 117.583H90.1573L89.7397 116.572ZM89.3961 115.744L88.6483 113.938L87.9005 115.744H89.3961ZM94.0921 117.664C93.6115 117.664 93.1759 117.56 92.7851 117.354C92.3989 117.143 92.0935 116.853 91.8689 116.485C91.6488 116.112 91.5388 115.692 91.5388 115.225C91.5388 114.758 91.6488 114.34 91.8689 113.972C92.0935 113.599 92.3989 113.31 92.7851 113.103C93.1759 112.892 93.6138 112.786 94.0988 112.786C94.5075 112.786 94.8758 112.858 95.2037 113.002C95.536 113.146 95.8145 113.352 96.039 113.622L95.3384 114.268C95.0195 113.9 94.6243 113.716 94.1527 113.716C93.8608 113.716 93.6003 113.781 93.3712 113.911C93.1422 114.037 92.9625 114.215 92.8323 114.444C92.7065 114.673 92.6437 114.933 92.6437 115.225C92.6437 115.517 92.7065 115.777 92.8323 116.007C92.9625 116.236 93.1422 116.415 93.3712 116.545C93.6003 116.671 93.8608 116.734 94.1527 116.734C94.6243 116.734 95.0195 116.548 95.3384 116.175L96.039 116.822C95.8145 117.096 95.536 117.304 95.2037 117.448C94.8713 117.592 94.5008 117.664 94.0921 117.664ZM100.308 113.756H98.7994V117.583H97.7215V113.756H96.2192V112.867H100.308V113.756ZM105.319 112.867V117.583H104.227V115.649H102.085V117.583H100.994V112.867H102.085V114.727H104.227V112.867H105.319ZM108.75 117.664C108.261 117.664 107.819 117.558 107.423 117.347C107.033 117.136 106.725 116.846 106.5 116.478C106.28 116.105 106.17 115.688 106.17 115.225C106.17 114.762 106.28 114.347 106.5 113.979C106.725 113.606 107.033 113.314 107.423 113.103C107.819 112.892 108.261 112.786 108.75 112.786C109.24 112.786 109.68 112.892 110.071 113.103C110.462 113.314 110.769 113.606 110.994 113.979C111.218 114.347 111.331 114.762 111.331 115.225C111.331 115.688 111.218 116.105 110.994 116.478C110.769 116.846 110.462 117.136 110.071 117.347C109.68 117.558 109.24 117.664 108.75 117.664ZM108.75 116.734C109.029 116.734 109.28 116.671 109.505 116.545C109.73 116.415 109.905 116.236 110.03 116.007C110.161 115.777 110.226 115.517 110.226 115.225C110.226 114.933 110.161 114.673 110.03 114.444C109.905 114.215 109.73 114.037 109.505 113.911C109.28 113.781 109.029 113.716 108.75 113.716C108.472 113.716 108.22 113.781 107.996 113.911C107.771 114.037 107.594 114.215 107.464 114.444C107.338 114.673 107.275 114.933 107.275 115.225C107.275 115.517 107.338 115.777 107.464 116.007C107.594 116.236 107.771 116.415 107.996 116.545C108.22 116.671 108.472 116.734 108.75 116.734ZM115.493 113.756H113.249L113.256 117.583H112.171V112.867H115.499L115.493 113.756ZM117.935 117.664C117.445 117.664 117.003 117.558 116.607 117.347C116.217 117.136 115.909 116.846 115.685 116.478C115.464 116.105 115.354 115.688 115.354 115.225C115.354 114.762 115.464 114.347 115.685 113.979C115.909 113.606 116.217 113.314 116.607 113.103C117.003 112.892 117.445 112.786 117.935 112.786C118.424 112.786 118.864 112.892 119.255 113.103C119.646 113.314 119.953 113.606 120.178 113.979C120.403 114.347 120.515 114.762 120.515 115.225C120.515 115.688 120.403 116.105 120.178 116.478C119.953 116.846 119.646 117.136 119.255 117.347C118.864 117.558 118.424 117.664 117.935 117.664ZM117.935 116.734C118.213 116.734 118.465 116.671 118.689 116.545C118.914 116.415 119.089 116.236 119.215 116.007C119.345 115.777 119.41 115.517 119.41 115.225C119.41 114.933 119.345 114.673 119.215 114.444C119.089 114.215 118.914 114.037 118.689 113.911C118.465 113.781 118.213 113.716 117.935 113.716C117.656 113.716 117.405 113.781 117.18 113.911C116.956 114.037 116.778 114.215 116.648 114.444C116.522 114.673 116.459 114.933 116.459 115.225C116.459 115.517 116.522 115.777 116.648 116.007C116.778 116.236 116.956 116.415 117.18 116.545C117.405 116.671 117.656 116.734 117.935 116.734ZM125.493 117.664C125.013 117.664 124.577 117.56 124.186 117.354C123.8 117.143 123.495 116.853 123.27 116.485C123.05 116.112 122.94 115.692 122.94 115.225C122.94 114.758 123.05 114.34 123.27 113.972C123.495 113.599 123.8 113.31 124.186 113.103C124.577 112.892 125.015 112.786 125.5 112.786C125.909 112.786 126.277 112.858 126.605 113.002C126.937 113.146 127.216 113.352 127.44 113.622L126.74 114.268C126.421 113.9 126.026 113.716 125.554 113.716C125.262 113.716 125.002 113.781 124.773 113.911C124.543 114.037 124.364 114.215 124.234 114.444C124.108 114.673 124.045 114.933 124.045 115.225C124.045 115.517 124.108 115.777 124.234 116.007C124.364 116.236 124.543 116.415 124.773 116.545C125.002 116.671 125.262 116.734 125.554 116.734C126.026 116.734 126.421 116.548 126.74 116.175L127.44 116.822C127.216 117.096 126.937 117.304 126.605 117.448C126.273 117.592 125.902 117.664 125.493 117.664ZM132.317 112.867L130.31 116.599C130.117 116.959 129.883 117.23 129.609 117.415C129.34 117.599 129.045 117.691 128.726 117.691C128.479 117.691 128.223 117.637 127.958 117.529L128.221 116.7C128.41 116.759 128.567 116.788 128.693 116.788C128.828 116.788 128.949 116.757 129.057 116.694C129.164 116.626 129.263 116.523 129.353 116.384L129.393 116.33L127.534 112.867H128.7L129.953 115.4L131.246 112.867H132.317ZM137.621 116.694V118.56H136.61V117.583H133.282V118.56H132.272L132.279 116.694H132.467C132.75 116.685 132.95 116.478 133.067 116.074C133.184 115.67 133.255 115.093 133.282 114.343L133.336 112.867H136.961V116.694H137.621ZM134.246 114.444C134.223 115.005 134.176 115.477 134.104 115.858C134.032 116.236 133.922 116.514 133.774 116.694H135.883V113.756H134.266L134.246 114.444ZM141.588 116.572H139.399L138.981 117.583H137.863L139.965 112.867H141.043L143.151 117.583H142.006L141.588 116.572ZM141.245 115.744L140.497 113.938L139.749 115.744H141.245Z" fill="#2D3C55"/>
<defs>
<filter id="filter0_d" x="21.7175" y="6.76514" width="123.939" height="88.1382" filterUnits="userSpaceOnUse" color-interpolation-filters="sRGB">
<feFlood flood-opacity="0" result="BackgroundImageFix"/>
<feColorMatrix in="SourceAlpha" type="matrix" values="0 0 0 0 0 0 0 0 0 0 0 0 0 0 0 0 0 0 127 0"/>
<feOffset dy="-1"/>
<feColorMatrix type="matrix" values="0 0 0 0 0.133333 0 0 0 0 0.180392 0 0 0 0 0.258824 0 0 0 0.2 0"/>
<feBlend mode="normal" in2="BackgroundImageFix" result="effect1_dropShadow"/>
<feBlend mode="normal" in="SourceGraphic" in2="effect1_dropShadow" result="shape"/>
</filter>
<filter id="filter1_d" x="20.969" y="24.3386" width="124.688" height="14.6028" filterUnits="userSpaceOnUse" color-interpolation-filters="sRGB">
<feFlood flood-opacity="0" result="BackgroundImageFix"/>
<feColorMatrix in="SourceAlpha" type="matrix" values="0 0 0 0 0 0 0 0 0 0 0 0 0 0 0 0 0 0 127 0"/>
<feOffset dx="-0.374269" dy="0.374269"/>
<feGaussianBlur stdDeviation="0.187135"/>
<feColorMatrix type="matrix" values="0 0 0 0 0 0 0 0 0 0 0 0 0 0 0 0 0 0 0.05 0"/>
<feBlend mode="normal" in2="BackgroundImageFix" result="effect1_dropShadow"/>
<feBlend mode="normal" in="SourceGraphic" in2="effect1_dropShadow" result="shape"/>
</filter>
<filter id="filter2_d" x="25.0878" y="22.4664" width="10.484" height="71.892" filterUnits="userSpaceOnUse" color-interpolation-filters="sRGB">
<feFlood flood-opacity="0" result="BackgroundImageFix"/>
<feColorMatrix in="SourceAlpha" type="matrix" values="0 0 0 0 0 0 0 0 0 0 0 0 0 0 0 0 0 0 127 0"/>
<feOffset dx="-0.374269" dy="0.374269"/>
<feGaussianBlur stdDeviation="0.187135"/>
<feColorMatrix type="matrix" values="0 0 0 0 0 0 0 0 0 0 0 0 0 0 0 0 0 0 0.05 0"/>
<feBlend mode="normal" in2="BackgroundImageFix" result="effect1_dropShadow"/>
<feBlend mode="normal" in="SourceGraphic" in2="effect1_dropShadow" result="shape"/>
</filter>
<filter id="filter3_d" x="130.68" y="22.4664" width="10.8584" height="71.892" filterUnits="userSpaceOnUse" color-interpolation-filters="sRGB">
<feFlood flood-opacity="0" result="BackgroundImageFix"/>
<feColorMatrix in="SourceAlpha" type="matrix" values="0 0 0 0 0 0 0 0 0 0 0 0 0 0 0 0 0 0 127 0"/>
<feOffset dx="-0.374269" dy="0.374269"/>
<feGaussianBlur stdDeviation="0.187135"/>
<feColorMatrix type="matrix" values="0 0 0 0 0 0 0 0 0 0 0 0 0 0 0 0 0 0 0.05 0"/>
<feBlend mode="normal" in2="BackgroundImageFix" result="effect1_dropShadow"/>
<feBlend mode="normal" in="SourceGraphic" in2="effect1_dropShadow" result="shape"/>
</filter>
<filter id="filter4_d" x="115.702" y="36.3206" width="5.99069" height="58.0378" filterUnits="userSpaceOnUse" color-interpolation-filters="sRGB">
<feFlood flood-opacity="0" result="BackgroundImageFix"/>
<feColorMatrix in="SourceAlpha" type="matrix" values="0 0 0 0 0 0 0 0 0 0 0 0 0 0 0 0 0 0 127 0"/>
<feOffset dx="-0.374269" dy="0.374269"/>
<feGaussianBlur stdDeviation="0.187135"/>
<feColorMatrix type="matrix" values="0 0 0 0 0 0 0 0 0 0 0 0 0 0 0 0 0 0 0.05 0"/>
<feBlend mode="normal" in2="BackgroundImageFix" result="effect1_dropShadow"/>
<feBlend mode="normal" in="SourceGraphic" in2="effect1_dropShadow" result="shape"/>
</filter>
<filter id="filter5_d" x="80.1304" y="38.1928" width="5.99069" height="56.1656" filterUnits="userSpaceOnUse" color-interpolation-filters="sRGB">
<feFlood flood-opacity="0" result="BackgroundImageFix"/>
<feColorMatrix in="SourceAlpha" type="matrix" values="0 0 0 0 0 0 0 0 0 0 0 0 0 0 0 0 0 0 127 0"/>
<feOffset dx="-0.374269" dy="0.374269"/>
<feGaussianBlur stdDeviation="0.187135"/>
<feColorMatrix type="matrix" values="0 0 0 0 0 0 0 0 0 0 0 0 0 0 0 0 0 0 0.05 0"/>
<feBlend mode="normal" in2="BackgroundImageFix" result="effect1_dropShadow"/>
<feBlend mode="normal" in="SourceGraphic" in2="effect1_dropShadow" result="shape"/>
</filter>
<filter id="filter6_d" x="44.5587" y="36.3206" width="5.61625" height="58.0378" filterUnits="userSpaceOnUse" color-interpolation-filters="sRGB">
<feFlood flood-opacity="0" result="BackgroundImageFix"/>
<feColorMatrix in="SourceAlpha" type="matrix" values="0 0 0 0 0 0 0 0 0 0 0 0 0 0 0 0 0 0 127 0"/>
<feOffset dx="-0.374269" dy="0.374269"/>
<feGaussianBlur stdDeviation="0.187135"/>
<feColorMatrix type="matrix" values="0 0 0 0 0 0 0 0 0 0 0 0 0 0 0 0 0 0 0.05 0"/>
<feBlend mode="normal" in2="BackgroundImageFix" result="effect1_dropShadow"/>
<feBlend mode="normal" in="SourceGraphic" in2="effect1_dropShadow" result="shape"/>
</filter>
<filter id="filter7_d" x="59.1618" y="29.2063" width="10.8584" height="65.1521" filterUnits="userSpaceOnUse" color-interpolation-filters="sRGB">
<feFlood flood-opacity="0" result="BackgroundImageFix"/>
<feColorMatrix in="SourceAlpha" type="matrix" values="0 0 0 0 0 0 0 0 0 0 0 0 0 0 0 0 0 0 127 0"/>
<feOffset dx="-0.374269" dy="0.374269"/>
<feGaussianBlur stdDeviation="0.187135"/>
<feColorMatrix type="matrix" values="0 0 0 0 0 0 0 0 0 0 0 0 0 0 0 0 0 0 0.05 0"/>
<feBlend mode="normal" in2="BackgroundImageFix" result="effect1_dropShadow"/>
<feBlend mode="normal" in="SourceGraphic" in2="effect1_dropShadow" result="shape"/>
</filter>
<filter id="filter8_d" x="95.8568" y="29.2063" width="10.8584" height="65.1521" filterUnits="userSpaceOnUse" color-interpolation-filters="sRGB">
<feFlood flood-opacity="0" result="BackgroundImageFix"/>
<feColorMatrix in="SourceAlpha" type="matrix" values="0 0 0 0 0 0 0 0 0 0 0 0 0 0 0 0 0 0 127 0"/>
<feOffset dx="-0.374269" dy="0.374269"/>
<feGaussianBlur stdDeviation="0.187135"/>
<feColorMatrix type="matrix" values="0 0 0 0 0 0 0 0 0 0 0 0 0 0 0 0 0 0 0.05 0"/>
<feBlend mode="normal" in2="BackgroundImageFix" result="effect1_dropShadow"/>
<feBlend mode="normal" in="SourceGraphic" in2="effect1_dropShadow" result="shape"/>
</filter>
<filter id="filter9_d" x="43.6225" y="7.76514" width="40.1806" height="22.5638" filterUnits="userSpaceOnUse" color-interpolation-filters="sRGB">
<feFlood flood-opacity="0" result="BackgroundImageFix"/>
<feColorMatrix in="SourceAlpha" type="matrix" values="0 0 0 0 0 0 0 0 0 0 0 0 0 0 0 0 0 0 127 0"/>
<feOffset dx="-0.374269" dy="0.374269"/>
<feGaussianBlur stdDeviation="0.187135"/>
<feColorMatrix type="matrix" values="0 0 0 0 0 0 0 0 0 0 0 0 0 0 0 0 0 0 0.05 0"/>
<feBlend mode="normal" in2="BackgroundImageFix" result="effect1_dropShadow"/>
<feBlend mode="normal" in="SourceGraphic" in2="effect1_dropShadow" result="shape"/>
</filter>
<filter id="filter10_d" x="81.6994" y="7.76514" width="40.1806" height="22.5638" filterUnits="userSpaceOnUse" color-interpolation-filters="sRGB">
<feFlood flood-opacity="0" result="BackgroundImageFix"/>
<feColorMatrix in="SourceAlpha" type="matrix" values="0 0 0 0 0 0 0 0 0 0 0 0 0 0 0 0 0 0 127 0"/>
<feOffset dx="-0.374269" dy="0.374269"/>
<feGaussianBlur stdDeviation="0.187135"/>
<feColorMatrix type="matrix" values="0 0 0 0 0 0 0 0 0 0 0 0 0 0 0 0 0 0 0.05 0"/>
<feBlend mode="normal" in2="BackgroundImageFix" result="effect1_dropShadow"/>
<feBlend mode="normal" in="SourceGraphic" in2="effect1_dropShadow" result="shape"/>
</filter>
<filter id="filter11_d" x="95.8568" y="28.8323" width="10.8584" height="1.87135" filterUnits="userSpaceOnUse" color-interpolation-filters="sRGB">
<feFlood flood-opacity="0" result="BackgroundImageFix"/>
<feColorMatrix in="SourceAlpha" type="matrix" values="0 0 0 0 0 0 0 0 0 0 0 0 0 0 0 0 0 0 127 0"/>
<feOffset dx="-0.374269" dy="0.374269"/>
<feGaussianBlur stdDeviation="0.187135"/>
<feColorMatrix type="matrix" values="0 0 0 0 0 0 0 0 0 0 0 0 0 0 0 0 0 0 0.05 0"/>
<feBlend mode="normal" in2="BackgroundImageFix" result="effect1_dropShadow"/>
<feBlend mode="normal" in="SourceGraphic" in2="effect1_dropShadow" result="shape"/>
</filter>
<filter id="filter12_d" x="80.1304" y="28.8323" width="5.99069" height="1.87135" filterUnits="userSpaceOnUse" color-interpolation-filters="sRGB">
<feFlood flood-opacity="0" result="BackgroundImageFix"/>
<feColorMatrix in="SourceAlpha" type="matrix" values="0 0 0 0 0 0 0 0 0 0 0 0 0 0 0 0 0 0 127 0"/>
<feOffset dx="-0.374269" dy="0.374269"/>
<feGaussianBlur stdDeviation="0.187135"/>
<feColorMatrix type="matrix" values="0 0 0 0 0 0 0 0 0 0 0 0 0 0 0 0 0 0 0.05 0"/>
<feBlend mode="normal" in2="BackgroundImageFix" result="effect1_dropShadow"/>
<feBlend mode="normal" in="SourceGraphic" in2="effect1_dropShadow" result="shape"/>
</filter>
<filter id="filter13_d" x="59.1618" y="28.8323" width="10.8584" height="1.87135" filterUnits="userSpaceOnUse" color-interpolation-filters="sRGB">
<feFlood flood-opacity="0" result="BackgroundImageFix"/>
<feColorMatrix in="SourceAlpha" type="matrix" values="0 0 0 0 0 0 0 0 0 0 0 0 0 0 0 0 0 0 127 0"/>
<feOffset dx="-0.374269" dy="0.374269"/>
<feGaussianBlur stdDeviation="0.187135"/>
<feColorMatrix type="matrix" values="0 0 0 0 0 0 0 0 0 0 0 0 0 0 0 0 0 0 0.05 0"/>
<feBlend mode="normal" in2="BackgroundImageFix" result="effect1_dropShadow"/>
<feBlend mode="normal" in="SourceGraphic" in2="effect1_dropShadow" result="shape"/>
</filter>
<filter id="filter14_dd" x="64.4039" y="89.491" width="37.818" height="4.86737" filterUnits="userSpaceOnUse" color-interpolation-filters="sRGB">
<feFlood flood-opacity="0" result="BackgroundImageFix"/>
<feColorMatrix in="SourceAlpha" type="matrix" values="0 0 0 0 0 0 0 0 0 0 0 0 0 0 0 0 0 0 127 0"/>
<feOffset dx="-0.374269" dy="0.374269"/>
<feGaussianBlur stdDeviation="0.187135"/>
<feColorMatrix type="matrix" values="0 0 0 0 0 0 0 0 0 0 0 0 0 0 0 0 0 0 0.05 0"/>
<feBlend mode="normal" in2="BackgroundImageFix" result="effect1_dropShadow"/>
<feColorMatrix in="SourceAlpha" type="matrix" values="0 0 0 0 0 0 0 0 0 0 0 0 0 0 0 0 0 0 127 0"/>
<feOffset dx="-0.374269" dy="0.374269"/>
<feGaussianBlur stdDeviation="0.187135"/>
<feColorMatrix type="matrix" values="0 0 0 0 0 0 0 0 0 0 0 0 0 0 0 0 0 0 0.05 0"/>
<feBlend mode="normal" in2="effect1_dropShadow" result="effect2_dropShadow"/>
<feBlend mode="normal" in="SourceGraphic" in2="effect2_dropShadow" result="shape"/>
</filter>
<filter id="filter15_d" x="82.6154" y="88.3847" width="22.7383" height="7.26719" filterUnits="userSpaceOnUse" color-interpolation-filters="sRGB">
<feFlood flood-opacity="0" result="BackgroundImageFix"/>
<feColorMatrix in="SourceAlpha" type="matrix" values="0 0 0 0 0 0 0 0 0 0 0 0 0 0 0 0 0 0 127 0"/>
<feOffset dx="-0.374269" dy="0.374269"/>
<feGaussianBlur stdDeviation="0.187135"/>
<feColorMatrix type="matrix" values="0 0 0 0 0 0 0 0 0 0 0 0 0 0 0 0 0 0 0.05 0"/>
<feBlend mode="normal" in2="BackgroundImageFix" result="effect1_dropShadow"/>
<feBlend mode="normal" in="SourceGraphic" in2="effect1_dropShadow" result="shape"/>
</filter>
<filter id="filter16_d" x="61.2721" y="88.3847" width="22.7383" height="7.26719" filterUnits="userSpaceOnUse" color-interpolation-filters="sRGB">
<feFlood flood-opacity="0" result="BackgroundImageFix"/>
<feColorMatrix in="SourceAlpha" type="matrix" values="0 0 0 0 0 0 0 0 0 0 0 0 0 0 0 0 0 0 127 0"/>
<feOffset dx="-0.374269" dy="0.374269"/>
<feGaussianBlur stdDeviation="0.187135"/>
<feColorMatrix type="matrix" values="0 0 0 0 0 0 0 0 0 0 0 0 0 0 0 0 0 0 0.05 0"/>
<feBlend mode="normal" in2="BackgroundImageFix" result="effect1_dropShadow"/>
<feBlend mode="normal" in="SourceGraphic" in2="effect1_dropShadow" result="shape"/>
</filter>
<linearGradient id="paint0_linear" x1="83.5" y1="102.222" x2="83.5" y2="73.9518" gradientUnits="userSpaceOnUse">
<stop stop-color="#333333"/>
<stop offset="0.437086" stop-color="#333333" stop-opacity="0.384106"/>
<stop offset="1" stop-color="#333333" stop-opacity="0"/>
</linearGradient>
<linearGradient id="paint1_linear" x1="101.099" y1="93.9843" x2="101.473" y2="84.9977" gradientUnits="userSpaceOnUse">
<stop stop-color="white"/>
<stop offset="1" stop-color="white" stop-opacity="0"/>
</linearGradient>
<linearGradient id="paint2_linear" x1="64.5908" y1="93.9843" x2="64.9653" y2="84.9977" gradientUnits="userSpaceOnUse">
<stop stop-color="white"/>
<stop offset="1" stop-color="white" stop-opacity="0"/>
</linearGradient>
<linearGradient id="paint3_linear" x1="30.2538" y1="93.9843" x2="30.643" y2="84.999" gradientUnits="userSpaceOnUse">
<stop stop-color="white"/>
<stop offset="1" stop-color="white" stop-opacity="0"/>
</linearGradient>
<linearGradient id="paint4_linear" x1="136.021" y1="93.9843" x2="136.4" y2="84.9981" gradientUnits="userSpaceOnUse">
<stop stop-color="white"/>
<stop offset="1" stop-color="white" stop-opacity="0"/>
</linearGradient>
</defs>
</svg>
