<svg width="125" height="162" viewBox="0 0 125 112" fill="none" xmlns="http://www.w3.org/2000/svg">
    <mask id="mask0" mask-type="alpha" maskUnits="userSpaceOnUse" x="0" y="0" width="125" height="87">
        <rect x="0.717529" y="0.488777" width="123.939" height="86.1211" fill="white"/>
    </mask>
    <g mask="url(#mask0)">
        <g filter="url(#filter0_d)">
            <rect x="0.717529" y="31.1928" width="123.939" height="55.417" fill="#9EE6CF"/>
            <g filter="url(#filter1_d)">
                <rect x="0.717529" y="17.3385" width="123.939" height="13.8543" fill="#EBECF0"/>
            </g>
            <path d="M62.5 1.23766L87.7746 17.3386H37.5058L62.5 1.23766Z" fill="#EBECF0"/>
            <g filter="url(#filter2_d)">
                <rect x="4.83635" y="15.4663" width="9.73543" height="71.1435" fill="#EBECF0"/>
            </g>
            <g filter="url(#filter3_d)">
                <rect x="110.428" y="15.4663" width="10.1099" height="71.1435" fill="#EBECF0"/>
            </g>
            <g filter="url(#filter4_d)">
                <rect x="95.4507" y="29.3206" width="5.24215" height="57.2892" fill="#EBECF0"/>
            </g>
            <g filter="url(#filter5_d)">
                <rect x="59.879" y="31.1928" width="5.24215" height="55.417" fill="#EBECF0"/>
            </g>
            <g filter="url(#filter6_d)">
                <rect x="24.3072" y="29.3206" width="4.86771" height="57.2892" fill="#EBECF0"/>
            </g>
            <g filter="url(#filter7_d)">
                <rect x="38.9103" y="22.2063" width="10.1099" height="64.4036" fill="#EBECF0"/>
            </g>
            <g filter="url(#filter8_d)">
                <rect x="75.6054" y="22.2063" width="10.1099" height="64.4036" fill="#EBECF0"/>
            </g>
            <path d="M0.717529 17.3385H4.83636V15.4663H14.9462V17.3385H37.5998" stroke="white" stroke-width="1.12281"/>
            <path d="M124.657 16.9641H120.725V15.0919H110.428V16.9641H86.4642" stroke="white" stroke-width="1.12281"/>
            <g filter="url(#filter9_d)">
                <path d="M62.5 1.23766L30.1109 22.0191H23.371" stroke="white" stroke-width="1.12281"/>
            </g>
            <g filter="url(#filter10_d)">
                <path d="M61.7511 1.23766L94.1402 22.0191H100.88" stroke="white" stroke-width="1.12281"/>
            </g>
            <g filter="url(#filter11_d)">
                <line x1="75.6054" y1="22.3937" x2="85.7152" y2="22.3937" stroke="white" stroke-width="1.12281"/>
            </g>
            <g filter="url(#filter12_d)">
                <line x1="59.879" y1="22.3937" x2="65.1211" y2="22.3937" stroke="white" stroke-width="1.12281"/>
            </g>
            <g filter="url(#filter13_d)">
                <line x1="38.9103" y1="22.3937" x2="49.0202" y2="22.3937" stroke="white" stroke-width="1.12281"/>
            </g>
            <rect x="66.2443" y="67.5134" width="8.23767" height="9.73543" fill="#536686"/>
            <line x1="69.427" y1="67.5134" x2="69.427" y2="77.2489" stroke="#394964" stroke-width="0.374269"/>
            <rect x="50.5179" y="67.5134" width="8.23767" height="9.73543" fill="#536686"/>
            <line x1="53.7005" y1="67.5134" x2="53.7005" y2="77.2489" stroke="#394964" stroke-width="0.374269"/>
            <rect x="29.9237" y="67.5134" width="8.23767" height="9.73543" fill="#536686"/>
            <line x1="33.1064" y1="67.5134" x2="33.1064" y2="77.2489" stroke="#394964" stroke-width="0.374269"/>
            <rect x="15.3206" y="67.5134" width="8.23767" height="9.73543" fill="#536686"/>
            <line x1="18.5033" y1="67.5134" x2="18.5033" y2="77.2489" stroke="#394964" stroke-width="0.374269"/>
            <rect x="86.4641" y="67.5134" width="8.23767" height="9.73543" fill="#FCF6C1"/>
            <line x1="89.6467" y1="67.5134" x2="89.6467" y2="77.2489" stroke="#43534E" stroke-opacity="0.2" stroke-width="0.374269"/>
            <rect x="101.442" y="67.5134" width="8.23767" height="9.73543" fill="#536686"/>
            <line x1="104.624" y1="67.5134" x2="104.624" y2="77.2489" stroke="#394964" stroke-width="0.374269"/>
            <rect x="66.2443" y="52.1614" width="8.23767" height="9.73543" fill="#536686"/>
            <line x1="69.427" y1="52.1614" x2="69.427" y2="61.8968" stroke="#394964" stroke-width="0.374269"/>
            <rect x="50.5179" y="52.1614" width="8.23767" height="9.73543" fill="#536686"/>
            <line x1="53.7005" y1="52.1614" x2="53.7005" y2="61.8968" stroke="#394964" stroke-width="0.374269"/>
            <rect x="29.9237" y="52.1614" width="8.23767" height="9.73543" fill="#536686"/>
            <line x1="33.1064" y1="52.1614" x2="33.1064" y2="61.8968" stroke="#394964" stroke-width="0.374269"/>
            <rect x="15.3206" y="52.1614" width="8.23767" height="9.73543" fill="#536686"/>
            <line x1="18.5033" y1="52.1614" x2="18.5033" y2="61.8968" stroke="#394964" stroke-width="0.374269"/>
            <rect x="86.4641" y="52.1614" width="8.23767" height="9.73543" fill="#536686"/>
            <line x1="89.6467" y1="52.1614" x2="89.6467" y2="61.8968" stroke="#394964" stroke-width="0.374269"/>
            <rect x="101.442" y="52.1614" width="8.23767" height="9.73543" fill="#536686"/>
            <line x1="104.624" y1="52.1614" x2="104.624" y2="61.8968" stroke="#394964" stroke-width="0.374269"/>
            <rect x="66.2443" y="36.8094" width="8.23767" height="9.73543" fill="#FCF6C1"/>
            <line x1="69.427" y1="36.8094" x2="69.427" y2="46.5448" stroke="#43534E" stroke-opacity="0.2" stroke-width="0.374269"/>
            <rect x="50.5179" y="36.8094" width="8.23767" height="9.73543" fill="#536686"/>
            <line x1="53.7005" y1="36.8094" x2="53.7005" y2="46.5448" stroke="#394964" stroke-width="0.374269"/>
            <rect x="29.9237" y="36.8094" width="8.23767" height="9.73543" fill="#536686"/>
            <line x1="33.1064" y1="36.8094" x2="33.1064" y2="46.5448" stroke="#394964" stroke-width="0.374269"/>
            <rect x="15.3206" y="36.8094" width="8.23767" height="9.73543" fill="#FCF6C1"/>
            <line x1="18.5033" y1="36.8094" x2="18.5033" y2="46.5448" stroke="#43534E" stroke-opacity="0.3" stroke-width="0.374269"/>
            <rect x="86.4641" y="36.8094" width="8.23767" height="9.73543" fill="#536686"/>
            <line x1="89.6467" y1="36.8094" x2="89.6467" y2="46.5448" stroke="#394964" stroke-width="0.374269"/>
            <rect x="101.442" y="36.8094" width="8.23767" height="9.73543" fill="#536686"/>
            <line x1="104.624" y1="36.8094" x2="104.624" y2="46.5448" stroke="#394964" stroke-width="0.374269"/>
            <rect x="0.717529" y="64.1435" width="123.939" height="22.4664" fill="url(#paint0_linear)" fill-opacity="0.3"/>
            <path d="M75.6054 86.6098H85.7153L87.9619 77.9977H73.1715L75.6054 86.6098Z" fill="url(#paint1_linear)" fill-opacity="0.65"/>
            <path d="M38.9103 86.6098H49.0202L51.4541 77.9977H36.6637L38.9103 86.6098Z" fill="url(#paint2_linear)" fill-opacity="0.65"/>
            <g filter="url(#filter14_dd)">
                <path d="M62.5838 82.491L81.222 86.6098H44.1525L62.5838 82.491Z" fill="#EBECF0"/>
            </g>
            <g filter="url(#filter15_d)">
                <path d="M62.5001 81.9293L84.2176 87.3587" stroke="white" stroke-width="1.12281"/>
            </g>
            <g filter="url(#filter16_d)">
                <path d="M62.8743 81.9293L41.1568 87.3587" stroke="white" stroke-width="1.12281"/>
            </g>
            <path d="M4.83635 86.6098H14.5718L16.8184 77.9977H2.58972L4.83635 86.6098Z" fill="url(#paint3_linear)" fill-opacity="0.65"/>
            <path d="M110.487 86.6098H120.479L122.785 77.9977H108.182L110.487 86.6098Z" fill="url(#paint4_linear)" fill-opacity="0.65"/>
        </g>
    </g>
    <path d="M4.9775 96.6679H3.76188V99.7287H2.01442V92.131H3.76188V95.2026H5.02092L7.01802 92.131H8.87402L6.3885 95.7996L8.95 99.7287H6.9529L4.9775 96.6679ZM14.77 98.1006H11.2425L10.5696 99.7287H8.76785L12.1542 92.131H13.8908L17.2881 99.7287H15.4429L14.77 98.1006ZM14.2165 96.7656L13.0117 93.8568L11.8069 96.7656H14.2165ZM26.1957 98.296V101.302H24.5676V99.7287H19.2058V101.302H17.5778L17.5886 98.296H17.8925C18.3484 98.2815 18.6704 97.9487 18.8585 97.2974C19.0466 96.6462 19.1624 95.7164 19.2058 94.508L19.2927 92.131H25.132V98.296H26.1957ZM20.7579 94.6708C20.7217 95.5753 20.6458 96.3351 20.53 96.9501C20.4142 97.5579 20.2369 98.0065 19.9981 98.296H23.3954V93.5637H20.7905L20.7579 94.6708ZM30.668 92.131C31.341 92.131 31.9235 92.2432 32.4155 92.4675C32.9148 92.6918 33.2983 93.0102 33.566 93.4226C33.8337 93.8351 33.9676 94.3235 33.9676 94.8879C33.9676 95.445 33.8337 95.9335 33.566 96.3532C33.2983 96.7656 32.9148 97.084 32.4155 97.3083C31.9235 97.5254 31.341 97.6339 30.668 97.6339H29.1376V99.7287H27.3793V92.131H30.668ZM30.5703 96.2012C31.0986 96.2012 31.5002 96.089 31.7751 95.8647C32.0501 95.6332 32.1876 95.3076 32.1876 94.8879C32.1876 94.461 32.0501 94.1354 31.7751 93.911C31.5002 93.6795 31.0986 93.5637 30.5703 93.5637H29.1376V96.2012H30.5703ZM38.8587 99.8589C38.07 99.8589 37.3572 99.6889 36.7205 99.3488C36.0909 99.0087 35.5953 98.542 35.2335 97.9487C34.8789 97.3481 34.7017 96.6751 34.7017 95.9299C34.7017 95.1846 34.8789 94.5152 35.2335 93.9219C35.5953 93.3213 36.0909 92.851 36.7205 92.5109C37.3572 92.1708 38.07 92.0008 38.8587 92.0008C39.6474 92.0008 40.3565 92.1708 40.986 92.5109C41.6155 92.851 42.1112 93.3213 42.473 93.9219C42.8348 94.5152 43.0157 95.1846 43.0157 95.9299C43.0157 96.6751 42.8348 97.3481 42.473 97.9487C42.1112 98.542 41.6155 99.0087 40.986 99.3488C40.3565 99.6889 39.6474 99.8589 38.8587 99.8589ZM38.8587 98.3611C39.3073 98.3611 39.7125 98.2598 40.0743 98.0572C40.4361 97.8474 40.7183 97.5579 40.9209 97.1889C41.1307 96.8199 41.2356 96.4002 41.2356 95.9299C41.2356 95.4595 41.1307 95.0398 40.9209 94.6708C40.7183 94.3018 40.4361 94.016 40.0743 93.8134C39.7125 93.6035 39.3073 93.4986 38.8587 93.4986C38.41 93.4986 38.0048 93.6035 37.643 93.8134C37.2812 94.016 36.9954 94.3018 36.7856 94.6708C36.583 95.0398 36.4817 95.4595 36.4817 95.9299C36.4817 96.4002 36.583 96.8199 36.7856 97.1889C36.9954 97.5579 37.2812 97.8474 37.643 98.0572C38.0048 98.2598 38.41 98.3611 38.8587 98.3611ZM49.6343 95.767C50.0974 95.9045 50.4519 96.1288 50.698 96.44C50.944 96.7511 51.067 97.1346 51.067 97.5905C51.067 98.2634 50.8101 98.788 50.2964 99.1643C49.7899 99.5406 49.0627 99.7287 48.1148 99.7287H44.3702V92.131H47.9085C48.7913 92.131 49.4787 92.3011 49.9708 92.6412C50.4628 92.9812 50.7088 93.466 50.7088 94.0956C50.7088 94.4718 50.6147 94.8047 50.4266 95.0941C50.2385 95.3763 49.9744 95.6006 49.6343 95.767ZM46.1177 95.2786H47.7566C48.1401 95.2786 48.4295 95.2026 48.6249 95.0507C48.8203 94.8915 48.9179 94.66 48.9179 94.3561C48.9179 94.0594 48.8166 93.8315 48.614 93.6723C48.4187 93.5131 48.1328 93.4335 47.7566 93.4335H46.1177V95.2786ZM48.0496 98.4262C48.8745 98.4262 49.287 98.1006 49.287 97.4494C49.287 96.8199 48.8745 96.5051 48.0496 96.5051H46.1177V98.4262H48.0496ZM56.137 94.6274C57.0632 94.6274 57.7723 94.8336 58.2643 95.2461C58.7636 95.6585 59.0132 96.2699 59.0132 97.0804C59.0132 97.9414 58.7383 98.5999 58.1884 99.0557C57.6457 99.5044 56.8787 99.7287 55.8873 99.7287H52.4575V92.131H54.205V94.6274H56.137ZM55.7897 98.4262C56.2455 98.4262 56.6001 98.3141 56.8533 98.0898C57.1138 97.8654 57.2441 97.5398 57.2441 97.1129C57.2441 96.3242 56.7593 95.9299 55.7897 95.9299H54.205V98.4262H55.7897ZM59.9792 92.131H61.7267V99.7287H59.9792V92.131ZM63.6187 92.131H65.3662V97.0804L68.9914 92.131H70.6411V99.7287H68.9045V94.7902L65.2794 99.7287H63.6187V92.131ZM67.1245 91.6426C65.7352 91.6426 65.0333 91.0891 65.0189 89.982H66.2236C66.2381 90.5102 66.5384 90.7743 67.1245 90.7743C67.4139 90.7743 67.6346 90.7092 67.7866 90.5789C67.9385 90.4414 68.0181 90.2425 68.0254 89.982H69.2301C69.2229 90.5247 69.0456 90.9371 68.6983 91.2193C68.351 91.5015 67.8264 91.6426 67.1245 91.6426ZM82.5314 92.131V99.7287H80.7839V93.5637H77.3541V99.7287H75.6067V92.131H82.5314ZM88.04 99.8589C87.2512 99.8589 86.5385 99.6889 85.9018 99.3488C85.2722 99.0087 84.7766 98.542 84.4148 97.9487C84.0602 97.3481 83.8829 96.6751 83.8829 95.9299C83.8829 95.1846 84.0602 94.5152 84.4148 93.9219C84.7766 93.3213 85.2722 92.851 85.9018 92.5109C86.5385 92.1708 87.2512 92.0008 88.04 92.0008C88.8287 92.0008 89.5378 92.1708 90.1673 92.5109C90.7968 92.851 91.2925 93.3213 91.6543 93.9219C92.0161 94.5152 92.197 95.1846 92.197 95.9299C92.197 96.6751 92.0161 97.3481 91.6543 97.9487C91.2925 98.542 90.7968 99.0087 90.1673 99.3488C89.5378 99.6889 88.8287 99.8589 88.04 99.8589ZM88.04 98.3611C88.4886 98.3611 88.8938 98.2598 89.2556 98.0572C89.6174 97.8474 89.8996 97.5579 90.1022 97.1889C90.312 96.8199 90.4169 96.4002 90.4169 95.9299C90.4169 95.4595 90.312 95.0398 90.1022 94.6708C89.8996 94.3018 89.6174 94.016 89.2556 93.8134C88.8938 93.6035 88.4886 93.4986 88.04 93.4986C87.5913 93.4986 87.1861 93.6035 86.8243 93.8134C86.4625 94.016 86.1767 94.3018 85.9669 94.6708C85.7643 95.0398 85.663 95.4595 85.663 95.9299C85.663 96.4002 85.7643 96.8199 85.9669 97.1889C86.1767 97.5579 86.4625 97.8474 86.8243 98.0572C87.1861 98.2598 87.5913 98.3611 88.04 98.3611ZM96.8402 92.131C97.5131 92.131 98.0956 92.2432 98.5876 92.4675C99.0869 92.6918 99.4704 93.0102 99.7381 93.4226C100.006 93.8351 100.14 94.3235 100.14 94.8879C100.14 95.445 100.006 95.9335 99.7381 96.3532C99.4704 96.7656 99.0869 97.084 98.5876 97.3083C98.0956 97.5254 97.5131 97.6339 96.8402 97.6339H95.3098V99.7287H93.5515V92.131H96.8402ZM96.7425 96.2012C97.2707 96.2012 97.6723 96.089 97.9473 95.8647C98.2222 95.6332 98.3597 95.3076 98.3597 94.8879C98.3597 94.461 98.2222 94.1354 97.9473 93.911C97.6723 93.6795 97.2707 93.5637 96.7425 93.5637H95.3098V96.2012H96.7425ZM106.894 93.5637H104.463V99.7287H102.727V93.5637H100.306V92.131H106.894V93.5637ZM112.762 98.1006H109.234L108.561 99.7287H106.759L110.146 92.131H111.882L115.28 99.7287H113.435L112.762 98.1006ZM112.208 96.7656L111.003 93.8568L109.799 96.7656H112.208ZM123.124 92.131V99.7287H121.387V93.5637H118.782L118.728 95.1484C118.692 96.2265 118.605 97.1021 118.467 97.775C118.33 98.4407 118.098 98.9544 117.773 99.3162C117.454 99.6708 117.006 99.8481 116.427 99.8481C116.188 99.8481 115.899 99.8083 115.558 99.7287L115.667 98.2417C115.761 98.2707 115.866 98.2851 115.982 98.2851C116.401 98.2851 116.695 98.0391 116.861 97.5471C117.027 97.0478 117.132 96.2699 117.176 95.2135L117.284 92.131H123.124Z" fill="white"/>
    <path d="M4.87121 109.572H2.68174L2.26405 110.583H1.14574L3.24763 105.867H4.32553L6.43416 110.583H5.2889L4.87121 109.572ZM4.52763 108.744L3.77984 106.938L3.03205 108.744H4.52763ZM11.3509 110.583L11.3442 107.76L9.95637 110.084H9.47132L8.08353 107.814V110.583H7.05953V105.867H7.96226L9.72732 108.798L11.4654 105.867H12.3682L12.3749 110.583H11.3509ZM17.8041 105.867L15.7965 109.599C15.6034 109.959 15.3698 110.23 15.0958 110.415C14.8264 110.599 14.5322 110.691 14.2133 110.691C13.9663 110.691 13.7103 110.637 13.4453 110.529L13.7081 109.7C13.8967 109.759 14.0539 109.788 14.1796 109.788C14.3144 109.788 14.4356 109.757 14.5434 109.694C14.6512 109.626 14.75 109.523 14.8398 109.384L14.8803 109.33L13.0209 105.867H14.1864L15.4394 108.4L16.7329 105.867H17.8041ZM20.3639 105.867C20.7816 105.867 21.1432 105.937 21.4486 106.076C21.7585 106.215 21.9965 106.413 22.1627 106.669C22.3289 106.925 22.4119 107.228 22.4119 107.578C22.4119 107.924 22.3289 108.227 22.1627 108.488C21.9965 108.744 21.7585 108.941 21.4486 109.081C21.1432 109.215 20.7816 109.283 20.3639 109.283H19.4141V110.583H18.3227V105.867H20.3639ZM20.3033 108.393C20.6312 108.393 20.8804 108.324 21.0511 108.185C21.2218 108.041 21.3071 107.839 21.3071 107.578C21.3071 107.313 21.2218 107.111 21.0511 106.972C20.8804 106.828 20.6312 106.756 20.3033 106.756H19.4141V108.393H20.3033ZM25.4276 110.664C24.947 110.664 24.5114 110.56 24.1206 110.354C23.7344 110.143 23.429 109.853 23.2044 109.485C22.9844 109.112 22.8743 108.692 22.8743 108.225C22.8743 107.758 22.9844 107.34 23.2044 106.972C23.429 106.599 23.7344 106.31 24.1206 106.103C24.5114 105.892 24.9493 105.786 25.4343 105.786C25.843 105.786 26.2113 105.858 26.5392 106.002C26.8715 106.146 27.15 106.352 27.3745 106.622L26.6739 107.268C26.355 106.9 25.9598 106.716 25.4882 106.716C25.1963 106.716 24.9358 106.781 24.7067 106.911C24.4777 107.037 24.298 107.215 24.1678 107.444C24.042 107.673 23.9792 107.933 23.9792 108.225C23.9792 108.517 24.042 108.777 24.1678 109.007C24.298 109.236 24.4777 109.415 24.7067 109.545C24.9358 109.671 25.1963 109.734 25.4882 109.734C25.9598 109.734 26.355 109.548 26.6739 109.175L27.3745 109.822C27.15 110.096 26.8715 110.304 26.5392 110.448C26.2068 110.592 25.8363 110.664 25.4276 110.664ZM29.9115 108.683H29.157V110.583H28.0724V105.867H29.157V107.774H29.9385L31.1781 105.867H32.3301L30.7873 108.144L32.3772 110.583H31.1376L29.9115 108.683ZM35.1188 110.664C34.6293 110.664 34.1869 110.558 33.7917 110.347C33.401 110.136 33.0933 109.846 32.8687 109.478C32.6487 109.105 32.5386 108.688 32.5386 108.225C32.5386 107.762 32.6487 107.347 32.8687 106.979C33.0933 106.606 33.401 106.314 33.7917 106.103C34.1869 105.892 34.6293 105.786 35.1188 105.786C35.6084 105.786 36.0485 105.892 36.4393 106.103C36.83 106.314 37.1377 106.606 37.3622 106.979C37.5868 107.347 37.6991 107.762 37.6991 108.225C37.6991 108.688 37.5868 109.105 37.3622 109.478C37.1377 109.846 36.83 110.136 36.4393 110.347C36.0485 110.558 35.6084 110.664 35.1188 110.664ZM35.1188 109.734C35.3973 109.734 35.6488 109.671 35.8734 109.545C36.0979 109.415 36.2731 109.236 36.3988 109.007C36.5291 108.777 36.5942 108.517 36.5942 108.225C36.5942 107.933 36.5291 107.673 36.3988 107.444C36.2731 107.215 36.0979 107.037 35.8734 106.911C35.6488 106.781 35.3973 106.716 35.1188 106.716C34.8404 106.716 34.5889 106.781 34.3643 106.911C34.1398 107.037 33.9624 107.215 33.8321 107.444C33.7064 107.673 33.6435 107.933 33.6435 108.225C33.6435 108.517 33.7064 108.777 33.8321 109.007C33.9624 109.236 34.1398 109.415 34.3643 109.545C34.5889 109.671 34.8404 109.734 35.1188 109.734ZM41.8611 106.756H39.6177L39.6244 110.583H38.5398V105.867H41.8678L41.8611 106.756ZM44.3031 110.664C43.8135 110.664 43.3711 110.558 42.9759 110.347C42.5852 110.136 42.2775 109.846 42.053 109.478C41.8329 109.105 41.7228 108.688 41.7228 108.225C41.7228 107.762 41.8329 107.347 42.053 106.979C42.2775 106.606 42.5852 106.314 42.9759 106.103C43.3711 105.892 43.8135 105.786 44.3031 105.786C44.7926 105.786 45.2327 105.892 45.6235 106.103C46.0142 106.314 46.3219 106.606 46.5464 106.979C46.771 107.347 46.8833 107.762 46.8833 108.225C46.8833 108.688 46.771 109.105 46.5464 109.478C46.3219 109.846 46.0142 110.136 45.6235 110.347C45.2327 110.558 44.7926 110.664 44.3031 110.664ZM44.3031 109.734C44.5815 109.734 44.833 109.671 45.0576 109.545C45.2821 109.415 45.4573 109.236 45.5831 109.007C45.7133 108.777 45.7784 108.517 45.7784 108.225C45.7784 107.933 45.7133 107.673 45.5831 107.444C45.4573 107.215 45.2821 107.037 45.0576 106.911C44.833 106.781 44.5815 106.716 44.3031 106.716C44.0246 106.716 43.7731 106.781 43.5485 106.911C43.324 107.037 43.1466 107.215 43.0163 107.444C42.8906 107.673 42.8277 107.933 42.8277 108.225C42.8277 108.517 42.8906 108.777 43.0163 109.007C43.1466 109.236 43.324 109.415 43.5485 109.545C43.7731 109.671 44.0246 109.734 44.3031 109.734ZM51.882 110.664C51.3925 110.664 50.9501 110.558 50.5548 110.347C50.1641 110.136 49.8565 109.846 49.6319 109.478C49.4118 109.105 49.3018 108.688 49.3018 108.225C49.3018 107.762 49.4118 107.347 49.6319 106.979C49.8565 106.606 50.1641 106.314 50.5548 106.103C50.9501 105.892 51.3925 105.786 51.882 105.786C52.3715 105.786 52.8117 105.892 53.2024 106.103C53.5932 106.314 53.9008 106.606 54.1254 106.979C54.3499 107.347 54.4622 107.762 54.4622 108.225C54.4622 108.688 54.3499 109.105 54.1254 109.478C53.9008 109.846 53.5932 110.136 53.2024 110.347C52.8117 110.558 52.3715 110.664 51.882 110.664ZM51.882 109.734C52.1605 109.734 52.412 109.671 52.6365 109.545C52.8611 109.415 53.0362 109.236 53.162 109.007C53.2922 108.777 53.3574 108.517 53.3574 108.225C53.3574 107.933 53.2922 107.673 53.162 107.444C53.0362 107.215 52.8611 107.037 52.6365 106.911C52.412 106.781 52.1605 106.716 51.882 106.716C51.6035 106.716 51.352 106.781 51.1275 106.911C50.9029 107.037 50.7255 107.215 50.5953 107.444C50.4695 107.673 50.4066 107.933 50.4066 108.225C50.4066 108.517 50.4695 108.777 50.5953 109.007C50.7255 109.236 50.9029 109.415 51.1275 109.545C51.352 109.671 51.6035 109.734 51.882 109.734ZM55.303 105.867H59.1093V106.736H56.3876V107.706H57.6945C58.2649 107.706 58.6983 107.825 58.9947 108.063C59.2957 108.301 59.4461 108.645 59.4461 109.094C59.4461 109.566 59.2799 109.932 58.9476 110.192C58.6152 110.453 58.1459 110.583 57.5396 110.583H55.303V105.867ZM57.479 109.775C57.7574 109.775 57.9707 109.721 58.119 109.613C58.2672 109.501 58.3413 109.339 58.3413 109.128C58.3413 108.715 58.0538 108.508 57.479 108.508H56.3876V109.775H57.479ZM64.3686 105.867V110.583H63.2907V106.756H61.6738L61.6402 107.74C61.6177 108.409 61.5638 108.953 61.4785 109.37C61.3931 109.784 61.2494 110.102 61.0473 110.327C60.8497 110.547 60.5713 110.657 60.212 110.657C60.0637 110.657 59.8841 110.632 59.673 110.583L59.7404 109.66C59.7988 109.678 59.8639 109.687 59.9357 109.687C60.1962 109.687 60.3781 109.534 60.4814 109.229C60.5847 108.919 60.6498 108.436 60.6768 107.78L60.7442 105.867H64.3686ZM68.7396 109.572H66.5502L66.1325 110.583H65.0142L67.1161 105.867H68.194L70.3026 110.583H69.1573L68.7396 109.572ZM68.3961 108.744L67.6483 106.938L66.9005 108.744H68.3961ZM73.0921 110.664C72.6115 110.664 72.1759 110.56 71.7851 110.354C71.3989 110.143 71.0935 109.853 70.8689 109.485C70.6488 109.112 70.5388 108.692 70.5388 108.225C70.5388 107.758 70.6488 107.34 70.8689 106.972C71.0935 106.599 71.3989 106.31 71.7851 106.103C72.1759 105.892 72.6137 105.786 73.0988 105.786C73.5075 105.786 73.8758 105.858 74.2036 106.002C74.536 106.146 74.8144 106.352 75.039 106.622L74.3384 107.268C74.0195 106.9 73.6243 106.716 73.1527 106.716C72.8608 106.716 72.6003 106.781 72.3712 106.911C72.1422 107.037 71.9625 107.215 71.8323 107.444C71.7065 107.673 71.6436 107.933 71.6436 108.225C71.6436 108.517 71.7065 108.777 71.8323 109.007C71.9625 109.236 72.1422 109.415 72.3712 109.545C72.6003 109.671 72.8608 109.734 73.1527 109.734C73.6243 109.734 74.0195 109.548 74.3384 109.175L75.039 109.822C74.8144 110.096 74.536 110.304 74.2036 110.448C73.8713 110.592 73.5008 110.664 73.0921 110.664ZM79.3085 106.756H77.7994V110.583H76.7215V106.756H75.2192V105.867H79.3085V106.756ZM84.3188 105.867V110.583H83.2274V108.649H81.0851V110.583H79.9937V105.867H81.0851V107.727H83.2274V105.867H84.3188ZM87.7504 110.664C87.2609 110.664 86.8185 110.558 86.4233 110.347C86.0325 110.136 85.7249 109.846 85.5003 109.478C85.2803 109.105 85.1702 108.688 85.1702 108.225C85.1702 107.762 85.2803 107.347 85.5003 106.979C85.7249 106.606 86.0325 106.314 86.4233 106.103C86.8185 105.892 87.2609 105.786 87.7504 105.786C88.24 105.786 88.6801 105.892 89.0708 106.103C89.4616 106.314 89.7692 106.606 89.9938 106.979C90.2184 107.347 90.3306 107.762 90.3306 108.225C90.3306 108.688 90.2184 109.105 89.9938 109.478C89.7692 109.846 89.4616 110.136 89.0708 110.347C88.6801 110.558 88.24 110.664 87.7504 110.664ZM87.7504 109.734C88.0289 109.734 88.2804 109.671 88.505 109.545C88.7295 109.415 88.9047 109.236 89.0304 109.007C89.1607 108.777 89.2258 108.517 89.2258 108.225C89.2258 107.933 89.1607 107.673 89.0304 107.444C88.9047 107.215 88.7295 107.037 88.505 106.911C88.2804 106.781 88.0289 106.716 87.7504 106.716C87.472 106.716 87.2205 106.781 86.9959 106.911C86.7713 107.037 86.5939 107.215 86.4637 107.444C86.3379 107.673 86.2751 107.933 86.2751 108.225C86.2751 108.517 86.3379 108.777 86.4637 109.007C86.5939 109.236 86.7713 109.415 86.9959 109.545C87.2205 109.671 87.472 109.734 87.7504 109.734ZM94.4926 106.756H92.2493L92.256 110.583H91.1714V105.867H94.4994L94.4926 106.756ZM96.9346 110.664C96.4451 110.664 96.0027 110.558 95.6075 110.347C95.2167 110.136 94.9091 109.846 94.6845 109.478C94.4645 109.105 94.3544 108.688 94.3544 108.225C94.3544 107.762 94.4645 107.347 94.6845 106.979C94.9091 106.606 95.2167 106.314 95.6075 106.103C96.0027 105.892 96.4451 105.786 96.9346 105.786C97.4242 105.786 97.8643 105.892 98.2551 106.103C98.6458 106.314 98.9534 106.606 99.178 106.979C99.4026 107.347 99.5148 107.762 99.5148 108.225C99.5148 108.688 99.4026 109.105 99.178 109.478C98.9534 109.846 98.6458 110.136 98.2551 110.347C97.8643 110.558 97.4242 110.664 96.9346 110.664ZM96.9346 109.734C97.2131 109.734 97.4646 109.671 97.6892 109.545C97.9137 109.415 98.0889 109.236 98.2146 109.007C98.3449 108.777 98.41 108.517 98.41 108.225C98.41 107.933 98.3449 107.673 98.2146 107.444C98.0889 107.215 97.9137 107.037 97.6892 106.911C97.4646 106.781 97.2131 106.716 96.9346 106.716C96.6562 106.716 96.4047 106.781 96.1801 106.911C95.9555 107.037 95.7781 107.215 95.6479 107.444C95.5221 107.673 95.4593 107.933 95.4593 108.225C95.4593 108.517 95.5221 108.777 95.6479 109.007C95.7781 109.236 95.9555 109.415 96.1801 109.545C96.4047 109.671 96.6562 109.734 96.9346 109.734ZM104.493 110.664C104.013 110.664 103.577 110.56 103.186 110.354C102.8 110.143 102.495 109.853 102.27 109.485C102.05 109.112 101.94 108.692 101.94 108.225C101.94 107.758 102.05 107.34 102.27 106.972C102.495 106.599 102.8 106.31 103.186 106.103C103.577 105.892 104.015 105.786 104.5 105.786C104.909 105.786 105.277 105.858 105.605 106.002C105.937 106.146 106.216 106.352 106.44 106.622L105.74 107.268C105.421 106.9 105.026 106.716 104.554 106.716C104.262 106.716 104.002 106.781 103.773 106.911C103.543 107.037 103.364 107.215 103.234 107.444C103.108 107.673 103.045 107.933 103.045 108.225C103.045 108.517 103.108 108.777 103.234 109.007C103.364 109.236 103.543 109.415 103.773 109.545C104.002 109.671 104.262 109.734 104.554 109.734C105.026 109.734 105.421 109.548 105.74 109.175L106.44 109.822C106.216 110.096 105.937 110.304 105.605 110.448C105.273 110.592 104.902 110.664 104.493 110.664ZM111.317 105.867L109.31 109.599C109.117 109.959 108.883 110.23 108.609 110.415C108.34 110.599 108.045 110.691 107.726 110.691C107.479 110.691 107.223 110.637 106.958 110.529L107.221 109.7C107.41 109.759 107.567 109.788 107.693 109.788C107.828 109.788 107.949 109.757 108.057 109.694C108.164 109.626 108.263 109.523 108.353 109.384L108.393 109.33L106.534 105.867H107.7L108.953 108.4L110.246 105.867H111.317ZM116.621 109.694V111.56H115.61V110.583H112.282V111.56H111.272L111.279 109.694H111.467C111.75 109.685 111.95 109.478 112.067 109.074C112.184 108.67 112.255 108.093 112.282 107.343L112.336 105.867H115.961V109.694H116.621ZM113.246 107.444C113.223 108.005 113.176 108.477 113.104 108.858C113.032 109.236 112.922 109.514 112.774 109.694H114.883V106.756H113.266L113.246 107.444ZM120.588 109.572H118.399L117.981 110.583H116.863L118.965 105.867H120.043L122.151 110.583H121.006L120.588 109.572ZM120.245 108.744L119.497 106.938L118.749 108.744H120.245Z" fill="white"/>
    <defs>
        <filter id="filter0_d" x="0.717529" y="-0.234844" width="123.939" height="88.1382" filterUnits="userSpaceOnUse" color-interpolation-filters="sRGB">
            <feFlood flood-opacity="0" result="BackgroundImageFix"/>
            <feColorMatrix in="SourceAlpha" type="matrix" values="0 0 0 0 0 0 0 0 0 0 0 0 0 0 0 0 0 0 127 0"/>
            <feOffset dy="-1"/>
            <feColorMatrix type="matrix" values="0 0 0 0 0.133333 0 0 0 0 0.180392 0 0 0 0 0.258824 0 0 0 0.2 0"/>
            <feBlend mode="normal" in2="BackgroundImageFix" result="effect1_dropShadow"/>
            <feBlend mode="normal" in="SourceGraphic" in2="effect1_dropShadow" result="shape"/>
        </filter>
        <filter id="filter1_d" x="-0.0310087" y="17.3385" width="124.688" height="14.6028" filterUnits="userSpaceOnUse" color-interpolation-filters="sRGB">
            <feFlood flood-opacity="0" result="BackgroundImageFix"/>
            <feColorMatrix in="SourceAlpha" type="matrix" values="0 0 0 0 0 0 0 0 0 0 0 0 0 0 0 0 0 0 127 0"/>
            <feOffset dx="-0.374269" dy="0.374269"/>
            <feGaussianBlur stdDeviation="0.187135"/>
            <feColorMatrix type="matrix" values="0 0 0 0 0 0 0 0 0 0 0 0 0 0 0 0 0 0 0.05 0"/>
            <feBlend mode="normal" in2="BackgroundImageFix" result="effect1_dropShadow"/>
            <feBlend mode="normal" in="SourceGraphic" in2="effect1_dropShadow" result="shape"/>
        </filter>
        <filter id="filter2_d" x="4.08781" y="15.4663" width="10.484" height="71.892" filterUnits="userSpaceOnUse" color-interpolation-filters="sRGB">
            <feFlood flood-opacity="0" result="BackgroundImageFix"/>
            <feColorMatrix in="SourceAlpha" type="matrix" values="0 0 0 0 0 0 0 0 0 0 0 0 0 0 0 0 0 0 127 0"/>
            <feOffset dx="-0.374269" dy="0.374269"/>
            <feGaussianBlur stdDeviation="0.187135"/>
            <feColorMatrix type="matrix" values="0 0 0 0 0 0 0 0 0 0 0 0 0 0 0 0 0 0 0.05 0"/>
            <feBlend mode="normal" in2="BackgroundImageFix" result="effect1_dropShadow"/>
            <feBlend mode="normal" in="SourceGraphic" in2="effect1_dropShadow" result="shape"/>
        </filter>
        <filter id="filter3_d" x="109.68" y="15.4663" width="10.8584" height="71.892" filterUnits="userSpaceOnUse" color-interpolation-filters="sRGB">
            <feFlood flood-opacity="0" result="BackgroundImageFix"/>
            <feColorMatrix in="SourceAlpha" type="matrix" values="0 0 0 0 0 0 0 0 0 0 0 0 0 0 0 0 0 0 127 0"/>
            <feOffset dx="-0.374269" dy="0.374269"/>
            <feGaussianBlur stdDeviation="0.187135"/>
            <feColorMatrix type="matrix" values="0 0 0 0 0 0 0 0 0 0 0 0 0 0 0 0 0 0 0.05 0"/>
            <feBlend mode="normal" in2="BackgroundImageFix" result="effect1_dropShadow"/>
            <feBlend mode="normal" in="SourceGraphic" in2="effect1_dropShadow" result="shape"/>
        </filter>
        <filter id="filter4_d" x="94.7022" y="29.3206" width="5.99069" height="58.0378" filterUnits="userSpaceOnUse" color-interpolation-filters="sRGB">
            <feFlood flood-opacity="0" result="BackgroundImageFix"/>
            <feColorMatrix in="SourceAlpha" type="matrix" values="0 0 0 0 0 0 0 0 0 0 0 0 0 0 0 0 0 0 127 0"/>
            <feOffset dx="-0.374269" dy="0.374269"/>
            <feGaussianBlur stdDeviation="0.187135"/>
            <feColorMatrix type="matrix" values="0 0 0 0 0 0 0 0 0 0 0 0 0 0 0 0 0 0 0.05 0"/>
            <feBlend mode="normal" in2="BackgroundImageFix" result="effect1_dropShadow"/>
            <feBlend mode="normal" in="SourceGraphic" in2="effect1_dropShadow" result="shape"/>
        </filter>
        <filter id="filter5_d" x="59.1304" y="31.1928" width="5.99069" height="56.1656" filterUnits="userSpaceOnUse" color-interpolation-filters="sRGB">
            <feFlood flood-opacity="0" result="BackgroundImageFix"/>
            <feColorMatrix in="SourceAlpha" type="matrix" values="0 0 0 0 0 0 0 0 0 0 0 0 0 0 0 0 0 0 127 0"/>
            <feOffset dx="-0.374269" dy="0.374269"/>
            <feGaussianBlur stdDeviation="0.187135"/>
            <feColorMatrix type="matrix" values="0 0 0 0 0 0 0 0 0 0 0 0 0 0 0 0 0 0 0.05 0"/>
            <feBlend mode="normal" in2="BackgroundImageFix" result="effect1_dropShadow"/>
            <feBlend mode="normal" in="SourceGraphic" in2="effect1_dropShadow" result="shape"/>
        </filter>
        <filter id="filter6_d" x="23.5587" y="29.3206" width="5.61625" height="58.0378" filterUnits="userSpaceOnUse" color-interpolation-filters="sRGB">
            <feFlood flood-opacity="0" result="BackgroundImageFix"/>
            <feColorMatrix in="SourceAlpha" type="matrix" values="0 0 0 0 0 0 0 0 0 0 0 0 0 0 0 0 0 0 127 0"/>
            <feOffset dx="-0.374269" dy="0.374269"/>
            <feGaussianBlur stdDeviation="0.187135"/>
            <feColorMatrix type="matrix" values="0 0 0 0 0 0 0 0 0 0 0 0 0 0 0 0 0 0 0.05 0"/>
            <feBlend mode="normal" in2="BackgroundImageFix" result="effect1_dropShadow"/>
            <feBlend mode="normal" in="SourceGraphic" in2="effect1_dropShadow" result="shape"/>
        </filter>
        <filter id="filter7_d" x="38.1618" y="22.2063" width="10.8584" height="65.1521" filterUnits="userSpaceOnUse" color-interpolation-filters="sRGB">
            <feFlood flood-opacity="0" result="BackgroundImageFix"/>
            <feColorMatrix in="SourceAlpha" type="matrix" values="0 0 0 0 0 0 0 0 0 0 0 0 0 0 0 0 0 0 127 0"/>
            <feOffset dx="-0.374269" dy="0.374269"/>
            <feGaussianBlur stdDeviation="0.187135"/>
            <feColorMatrix type="matrix" values="0 0 0 0 0 0 0 0 0 0 0 0 0 0 0 0 0 0 0.05 0"/>
            <feBlend mode="normal" in2="BackgroundImageFix" result="effect1_dropShadow"/>
            <feBlend mode="normal" in="SourceGraphic" in2="effect1_dropShadow" result="shape"/>
        </filter>
        <filter id="filter8_d" x="74.8568" y="22.2063" width="10.8584" height="65.1521" filterUnits="userSpaceOnUse" color-interpolation-filters="sRGB">
            <feFlood flood-opacity="0" result="BackgroundImageFix"/>
            <feColorMatrix in="SourceAlpha" type="matrix" values="0 0 0 0 0 0 0 0 0 0 0 0 0 0 0 0 0 0 127 0"/>
            <feOffset dx="-0.374269" dy="0.374269"/>
            <feGaussianBlur stdDeviation="0.187135"/>
            <feColorMatrix type="matrix" values="0 0 0 0 0 0 0 0 0 0 0 0 0 0 0 0 0 0 0.05 0"/>
            <feBlend mode="normal" in2="BackgroundImageFix" result="effect1_dropShadow"/>
            <feBlend mode="normal" in="SourceGraphic" in2="effect1_dropShadow" result="shape"/>
        </filter>
        <filter id="filter9_d" x="22.6225" y="0.765156" width="40.1806" height="22.5638" filterUnits="userSpaceOnUse" color-interpolation-filters="sRGB">
            <feFlood flood-opacity="0" result="BackgroundImageFix"/>
            <feColorMatrix in="SourceAlpha" type="matrix" values="0 0 0 0 0 0 0 0 0 0 0 0 0 0 0 0 0 0 127 0"/>
            <feOffset dx="-0.374269" dy="0.374269"/>
            <feGaussianBlur stdDeviation="0.187135"/>
            <feColorMatrix type="matrix" values="0 0 0 0 0 0 0 0 0 0 0 0 0 0 0 0 0 0 0.05 0"/>
            <feBlend mode="normal" in2="BackgroundImageFix" result="effect1_dropShadow"/>
            <feBlend mode="normal" in="SourceGraphic" in2="effect1_dropShadow" result="shape"/>
        </filter>
        <filter id="filter10_d" x="60.6994" y="0.765156" width="40.1806" height="22.5638" filterUnits="userSpaceOnUse" color-interpolation-filters="sRGB">
            <feFlood flood-opacity="0" result="BackgroundImageFix"/>
            <feColorMatrix in="SourceAlpha" type="matrix" values="0 0 0 0 0 0 0 0 0 0 0 0 0 0 0 0 0 0 127 0"/>
            <feOffset dx="-0.374269" dy="0.374269"/>
            <feGaussianBlur stdDeviation="0.187135"/>
            <feColorMatrix type="matrix" values="0 0 0 0 0 0 0 0 0 0 0 0 0 0 0 0 0 0 0.05 0"/>
            <feBlend mode="normal" in2="BackgroundImageFix" result="effect1_dropShadow"/>
            <feBlend mode="normal" in="SourceGraphic" in2="effect1_dropShadow" result="shape"/>
        </filter>
        <filter id="filter11_d" x="74.8568" y="21.8323" width="10.8584" height="1.87135" filterUnits="userSpaceOnUse" color-interpolation-filters="sRGB">
            <feFlood flood-opacity="0" result="BackgroundImageFix"/>
            <feColorMatrix in="SourceAlpha" type="matrix" values="0 0 0 0 0 0 0 0 0 0 0 0 0 0 0 0 0 0 127 0"/>
            <feOffset dx="-0.374269" dy="0.374269"/>
            <feGaussianBlur stdDeviation="0.187135"/>
            <feColorMatrix type="matrix" values="0 0 0 0 0 0 0 0 0 0 0 0 0 0 0 0 0 0 0.05 0"/>
            <feBlend mode="normal" in2="BackgroundImageFix" result="effect1_dropShadow"/>
            <feBlend mode="normal" in="SourceGraphic" in2="effect1_dropShadow" result="shape"/>
        </filter>
        <filter id="filter12_d" x="59.1304" y="21.8323" width="5.99069" height="1.87135" filterUnits="userSpaceOnUse" color-interpolation-filters="sRGB">
            <feFlood flood-opacity="0" result="BackgroundImageFix"/>
            <feColorMatrix in="SourceAlpha" type="matrix" values="0 0 0 0 0 0 0 0 0 0 0 0 0 0 0 0 0 0 127 0"/>
            <feOffset dx="-0.374269" dy="0.374269"/>
            <feGaussianBlur stdDeviation="0.187135"/>
            <feColorMatrix type="matrix" values="0 0 0 0 0 0 0 0 0 0 0 0 0 0 0 0 0 0 0.05 0"/>
            <feBlend mode="normal" in2="BackgroundImageFix" result="effect1_dropShadow"/>
            <feBlend mode="normal" in="SourceGraphic" in2="effect1_dropShadow" result="shape"/>
        </filter>
        <filter id="filter13_d" x="38.1618" y="21.8323" width="10.8584" height="1.87135" filterUnits="userSpaceOnUse" color-interpolation-filters="sRGB">
            <feFlood flood-opacity="0" result="BackgroundImageFix"/>
            <feColorMatrix in="SourceAlpha" type="matrix" values="0 0 0 0 0 0 0 0 0 0 0 0 0 0 0 0 0 0 127 0"/>
            <feOffset dx="-0.374269" dy="0.374269"/>
            <feGaussianBlur stdDeviation="0.187135"/>
            <feColorMatrix type="matrix" values="0 0 0 0 0 0 0 0 0 0 0 0 0 0 0 0 0 0 0.05 0"/>
            <feBlend mode="normal" in2="BackgroundImageFix" result="effect1_dropShadow"/>
            <feBlend mode="normal" in="SourceGraphic" in2="effect1_dropShadow" result="shape"/>
        </filter>
        <filter id="filter14_dd" x="43.4039" y="82.491" width="37.818" height="4.86737" filterUnits="userSpaceOnUse" color-interpolation-filters="sRGB">
            <feFlood flood-opacity="0" result="BackgroundImageFix"/>
            <feColorMatrix in="SourceAlpha" type="matrix" values="0 0 0 0 0 0 0 0 0 0 0 0 0 0 0 0 0 0 127 0"/>
            <feOffset dx="-0.374269" dy="0.374269"/>
            <feGaussianBlur stdDeviation="0.187135"/>
            <feColorMatrix type="matrix" values="0 0 0 0 0 0 0 0 0 0 0 0 0 0 0 0 0 0 0.05 0"/>
            <feBlend mode="normal" in2="BackgroundImageFix" result="effect1_dropShadow"/>
            <feColorMatrix in="SourceAlpha" type="matrix" values="0 0 0 0 0 0 0 0 0 0 0 0 0 0 0 0 0 0 127 0"/>
            <feOffset dx="-0.374269" dy="0.374269"/>
            <feGaussianBlur stdDeviation="0.187135"/>
            <feColorMatrix type="matrix" values="0 0 0 0 0 0 0 0 0 0 0 0 0 0 0 0 0 0 0.05 0"/>
            <feBlend mode="normal" in2="effect1_dropShadow" result="effect2_dropShadow"/>
            <feBlend mode="normal" in="SourceGraphic" in2="effect2_dropShadow" result="shape"/>
        </filter>
        <filter id="filter15_d" x="61.6154" y="81.3847" width="22.7383" height="7.26719" filterUnits="userSpaceOnUse" color-interpolation-filters="sRGB">
            <feFlood flood-opacity="0" result="BackgroundImageFix"/>
            <feColorMatrix in="SourceAlpha" type="matrix" values="0 0 0 0 0 0 0 0 0 0 0 0 0 0 0 0 0 0 127 0"/>
            <feOffset dx="-0.374269" dy="0.374269"/>
            <feGaussianBlur stdDeviation="0.187135"/>
            <feColorMatrix type="matrix" values="0 0 0 0 0 0 0 0 0 0 0 0 0 0 0 0 0 0 0.05 0"/>
            <feBlend mode="normal" in2="BackgroundImageFix" result="effect1_dropShadow"/>
            <feBlend mode="normal" in="SourceGraphic" in2="effect1_dropShadow" result="shape"/>
        </filter>
        <filter id="filter16_d" x="40.2721" y="81.3847" width="22.7383" height="7.26719" filterUnits="userSpaceOnUse" color-interpolation-filters="sRGB">
            <feFlood flood-opacity="0" result="BackgroundImageFix"/>
            <feColorMatrix in="SourceAlpha" type="matrix" values="0 0 0 0 0 0 0 0 0 0 0 0 0 0 0 0 0 0 127 0"/>
            <feOffset dx="-0.374269" dy="0.374269"/>
            <feGaussianBlur stdDeviation="0.187135"/>
            <feColorMatrix type="matrix" values="0 0 0 0 0 0 0 0 0 0 0 0 0 0 0 0 0 0 0.05 0"/>
            <feBlend mode="normal" in2="BackgroundImageFix" result="effect1_dropShadow"/>
            <feBlend mode="normal" in="SourceGraphic" in2="effect1_dropShadow" result="shape"/>
        </filter>
        <linearGradient id="paint0_linear" x1="62.5" y1="95.222" x2="62.5" y2="66.9518" gradientUnits="userSpaceOnUse">
            <stop stop-color="#333333"/>
            <stop offset="0.437086" stop-color="#333333" stop-opacity="0.384106"/>
            <stop offset="1" stop-color="#333333" stop-opacity="0"/>
        </linearGradient>
        <linearGradient id="paint1_linear" x1="80.0987" y1="86.9843" x2="80.4731" y2="77.9977" gradientUnits="userSpaceOnUse">
            <stop stop-color="white"/>
            <stop offset="1" stop-color="white" stop-opacity="0"/>
        </linearGradient>
        <linearGradient id="paint2_linear" x1="43.5908" y1="86.9843" x2="43.9653" y2="77.9977" gradientUnits="userSpaceOnUse">
            <stop stop-color="white"/>
            <stop offset="1" stop-color="white" stop-opacity="0"/>
        </linearGradient>
        <linearGradient id="paint3_linear" x1="9.25379" y1="86.9843" x2="9.64296" y2="77.999" gradientUnits="userSpaceOnUse">
            <stop stop-color="white"/>
            <stop offset="1" stop-color="white" stop-opacity="0"/>
        </linearGradient>
        <linearGradient id="paint4_linear" x1="115.021" y1="86.9843" x2="115.4" y2="77.9981" gradientUnits="userSpaceOnUse">
            <stop stop-color="white"/>
            <stop offset="1" stop-color="white" stop-opacity="0"/>
        </linearGradient>
    </defs>
</svg>
