<?xml version="1.0" encoding="utf-8"?>
<!-- Generator: Adobe Illustrator 17.0.0, SVG Export Plug-In . SVG Version: 6.00 Build 0)  -->
<!DOCTYPE svg PUBLIC "-//W3C//DTD SVG 1.0//EN" "http://www.w3.org/TR/2001/REC-SVG-20010904/DTD/svg10.dtd">
<svg version="1.0" id="Layer_1" xmlns="http://www.w3.org/2000/svg" xmlns:xlink="http://www.w3.org/1999/xlink" x="0px" y="0px"
	 width="841.89px" height="595.28px" viewBox="0 0 841.89 595.28" enable-background="new 0 0 841.89 595.28" xml:space="preserve">
<g>
	<path fill-rule="evenodd" clip-rule="evenodd" fill="#2F4365" d="M581.393,324.972v20.914H272.028v-20.914h82.848l71.834-11.777
		l71.845,11.777H581.393z M481.877,162.213h-24.723v4.617h24.723V162.213z M371.555,162.213h24.724v4.617h-24.724V162.213z
		 M283.697,147.084h27.496v6.931h53.104l-14.037,8.198h-39.066v4.617h40.409l75.109-45.408l75.109,45.408h40.42v-4.617h-39.066
		l-14.048-8.198h53.115v-6.931h27.485v6.931h11.669v166.001H498.96l-72.249-11.843l-72.238,11.843h-82.444V154.015h11.669V147.084z
		 M426.71,162.213h-12.356v4.617h12.356h12.367v-4.617H426.71z"/>
	<path fill-rule="evenodd" clip-rule="evenodd" fill="#7ACEB6" d="M346.548,196.061h23.326v121.423l-15.402,2.532h-7.924V196.061z
		 M581.393,196.061h-11.669v123.955h11.669V196.061z M456.062,196.061h-23.337v113.095l23.337,3.831V196.061z M542.239,196.061
		h-23.337v123.955h23.337V196.061z M506.884,196.061h-23.337v121.423l15.413,2.532h7.925V196.061z M272.028,196.061h11.669v123.955
		h-11.669V196.061z M397.37,196.061h23.337v113.095l-23.337,3.831V196.061z M311.193,196.061h23.337v123.955h-23.337V196.061z"/>
	<path fill="#2F4365" d="M463.888,424.03h-8.23v-24.451l-18.949,24.451h-7.171v-38.488h8.263v24.472l18.96-24.472h7.128V424.03z
		 M444.23,376.766c0.622,0.633,1.408,0.95,2.347,0.95c0.96,0,1.746-0.316,2.369-0.95c0.633-0.622,0.938-1.408,0.938-2.347h5.501
		c0,2.478-0.808,4.519-2.434,6.123c-1.637,1.605-3.755,2.401-6.353,2.401c-2.598,0-4.715-0.797-6.353-2.401
		c-1.627-1.605-2.445-3.646-2.445-6.123h5.479C443.28,375.358,443.596,376.144,444.23,376.766L444.23,376.766z"/>
	<path fill="#2F4365" d="M382.842,416.618h7.149c1.637,0,3.013-0.535,4.115-1.593c1.103-1.07,1.659-2.369,1.659-3.908
		c0-1.539-0.556-2.838-1.659-3.897c-1.102-1.08-2.478-1.605-4.115-1.605h-7.149V416.618z M390.253,424.03h-15.675v-38.488h8.263
		v12.64h7.411c3.962,0,7.237,1.234,9.846,3.712c2.598,2.478,3.897,5.556,3.897,9.223s-1.299,6.735-3.897,9.213
		C397.49,422.785,394.215,424.03,390.253,424.03L390.253,424.03z M416.636,385.542v38.488h-8.241v-38.488H416.636z"/>
	<path fill="#2F4365" d="M347.967,392.408h-7.673v8.263h7.673c1.365,0,2.445-0.371,3.231-1.125c0.786-0.753,1.179-1.747,1.179-3.002
		c0-1.255-0.393-2.259-1.179-3.001C350.412,392.79,349.331,392.408,347.967,392.408L347.967,392.408z M340.293,417.153h8.776
		c1.517,0,2.761-0.469,3.744-1.419c1.004-0.95,1.495-2.129,1.495-3.515c0-1.397-0.491-2.576-1.495-3.526
		c-0.983-0.96-2.227-1.441-3.744-1.441h-8.776V417.153z M349.473,424.03H332.03v-38.488h16.504c3.493,0,6.385,1.015,8.667,3.056
		c2.27,2.041,3.416,4.41,3.416,7.117c0,1.015-0.142,1.987-0.436,2.903c-0.284,0.928-0.644,1.692-1.103,2.303
		c-0.448,0.6-0.884,1.125-1.321,1.572c-0.447,0.437-0.797,0.742-1.081,0.917l-0.458,0.273c0.175,0.065,0.404,0.174,0.677,0.306
		c0.284,0.142,0.786,0.469,1.517,0.993c0.732,0.535,1.376,1.102,1.932,1.725c0.557,0.633,1.07,1.485,1.517,2.565
		c0.458,1.092,0.688,2.249,0.688,3.482c0,3.078-1.233,5.73-3.679,7.946C356.415,422.916,353.283,424.03,349.473,424.03
		L349.473,424.03z"/>
	<path fill="#2F4365" d="M287.157,418.965c-4.038-3.93-6.047-8.656-6.047-14.19c0-5.523,2.009-10.249,6.047-14.157
		c4.039-3.919,8.984-5.883,14.845-5.883c5.851,0,10.807,1.965,14.845,5.883c4.028,3.908,6.047,8.634,6.047,14.157
		c0,5.534-2.019,10.261-6.047,14.19c-4.038,3.93-8.994,5.894-14.845,5.894C296.14,424.859,291.196,422.894,287.157,418.965
		L287.157,418.965z M293.237,395.802c-2.401,2.445-3.602,5.436-3.602,8.994c0,3.558,1.201,6.538,3.602,8.983
		c2.401,2.423,5.326,3.646,8.765,3.646c3.45,0,6.353-1.223,8.754-3.646c2.401-2.445,3.602-5.425,3.602-8.983
		c0-3.559-1.201-6.549-3.602-8.994c-2.401-2.434-5.305-3.657-8.754-3.657C298.563,392.145,295.638,393.368,293.237,395.802
		L293.237,395.802z"/>
	<path fill="#2F4365" d="M259.76,392.975h-7.685v10.981h7.685c1.648,0,3.013-0.535,4.115-1.583c1.102-1.07,1.649-2.358,1.649-3.897
		c0-1.539-0.546-2.838-1.649-3.908C262.772,393.499,261.408,392.975,259.76,392.975L259.76,392.975z M243.812,385.542h16.22
		c3.94,0,7.226,1.233,9.824,3.722c2.609,2.467,3.919,5.534,3.919,9.191c0,3.668-1.31,6.735-3.897,9.212
		c-2.598,2.478-5.883,3.711-9.846,3.711h-7.958v12.651h-8.263V385.542z"/>
	<path fill="#2F4365" d="M209.418,397.374c0,2.554-0.208,4.978-0.622,7.248c-0.426,2.271-0.928,4.104-1.506,5.501
		c-0.59,1.397-1.168,2.609-1.757,3.624c-0.59,1.015-1.081,1.747-1.474,2.194l-0.677,0.676h16.209v-23.643h-10.173V397.374z
		 M192.946,416.618h2.194c0.153-0.142,0.36-0.371,0.633-0.676c0.273-0.328,0.764-1.037,1.463-2.161
		c0.699-1.113,1.31-2.336,1.834-3.69c0.535-1.332,1.015-3.154,1.463-5.436c0.436-2.292,0.644-4.726,0.644-7.281v-11.832h26.655
		v31.076h4.694v7.412h-8.263l0,0h-23.086l0,0h-8.23V416.618z"/>
	<path fill="#2F4365" d="M174.827,414.959h-14.845l-3.296,9.071h-8.798l15.129-38.488h8.776l15.139,38.488h-8.808L174.827,414.959z
		 M172.087,407.809l-4.672-12.629l-4.694,12.629H172.087z"/>
	<polygon fill="#2F4365" points="117.575,385.542 117.575,402.319 132.693,385.542 142.31,385.542 128.021,401.478 143.401,424.03 
		133.796,424.03 122.52,407.547 117.575,413.027 117.575,424.03 109.313,424.03 109.313,385.542 	"/>
	<path fill="#2F4365" d="M743.574,385.542v38.488h-8.241v-31.054h-11.265v4.399c0,5.425-0.306,9.966-0.906,13.655
		c-0.6,3.668-1.484,6.495-2.652,8.46c-1.179,1.975-2.489,3.351-3.93,4.159c-1.463,0.808-3.176,1.211-5.163,1.211
		c-0.797,0-1.616-0.087-2.445-0.251c-0.808-0.175-1.43-0.338-1.823-0.47l-0.666-0.218v-7.859c0.917,0.349,1.823,0.535,2.739,0.556
		c1.43,0,2.587-0.436,3.471-1.299c0.884-0.862,1.627-2.751,2.227-5.665c0.6-2.903,0.906-6.986,0.906-12.225v-11.887H743.574z"/>
	<path fill="#2F4365" d="M688.811,414.959h-14.834l-3.307,9.071h-8.798l15.129-38.488h8.776l15.14,38.488h-8.809L688.811,414.959z
		 M686.071,407.809l-4.672-12.629l-4.694,12.629H686.071z"/>
	<polygon fill="#2F4365" points="627.838,385.542 658.051,385.542 658.051,392.975 647.081,392.975 647.081,424.03 638.84,424.03 
		638.84,392.975 627.838,392.975 	"/>
	<path fill="#2F4365" d="M607.229,392.975h-7.673v10.981h7.673c1.648,0,3.023-0.535,4.126-1.583c1.092-1.07,1.648-2.358,1.648-3.897
		c0-1.539-0.556-2.838-1.648-3.908C610.253,393.499,608.878,392.975,607.229,392.975L607.229,392.975z M591.293,385.542h16.209
		c3.952,0,7.226,1.233,9.835,3.722c2.609,2.467,3.908,5.534,3.908,9.191c0,3.668-1.299,6.735-3.897,9.212
		c-2.587,2.478-5.873,3.711-9.846,3.711h-7.946v12.651h-8.263V385.542z"/>
	<path fill="#2F4365" d="M545.295,418.965c-4.028-3.93-6.047-8.656-6.047-14.19c0-5.523,2.019-10.249,6.047-14.157
		c4.039-3.919,8.983-5.883,14.856-5.883c5.851,0,10.795,1.965,14.834,5.883c4.028,3.908,6.047,8.634,6.047,14.157
		c0,5.534-2.019,10.261-6.047,14.19c-4.039,3.93-8.983,5.894-14.834,5.894C554.279,424.859,549.334,422.894,545.295,418.965
		L545.295,418.965z M551.375,395.802c-2.39,2.445-3.591,5.436-3.591,8.994c0,3.558,1.201,6.538,3.591,8.983
		c2.401,2.423,5.327,3.646,8.776,3.646c3.438,0,6.353-1.223,8.754-3.646c2.401-2.445,3.602-5.425,3.602-8.983
		c0-3.559-1.201-6.549-3.602-8.994c-2.401-2.434-5.316-3.657-8.754-3.657C556.702,392.145,553.777,393.368,551.375,395.802
		L551.375,395.802z"/>
	<polygon fill="#2F4365" points="529.664,385.542 529.664,424.03 521.424,424.03 521.424,392.975 505.214,392.975 505.214,424.03 
		496.951,424.03 496.951,385.542 	"/>
	<path fill="#2F4365" d="M122.094,460.072l-2.663-7.215l-2.674,7.215H122.094z M123.655,464.144h-8.47l-1.878,5.174h-5.021
		l8.634-21.951h4.999l8.634,21.951h-5.021L123.655,464.144z M149.721,456.929l7.598-9.562h4.158v21.951h-4.694V454.68l-7.062,8.983
		l-7.04-8.918v14.572h-4.716v-21.951h4.246L149.721,456.929z M174.074,447.367l5.163,10.348l4.399-10.348h5.021l-7.685,16.472
		c-0.895,1.888-1.954,3.34-3.165,4.312c-1.223,0.982-2.729,1.473-4.519,1.473c-0.426,0-0.84-0.044-1.255-0.12
		c-0.415-0.087-0.731-0.164-0.939-0.251l-0.316-0.088v-4.071c0.524,0.196,1.146,0.306,1.877,0.306c1.572,0,2.783-0.732,3.624-2.194
		l0.622-1.103l-7.838-14.736H174.074z M195.752,447.367h9.245c2.249,0,4.126,0.71,5.599,2.118c1.496,1.408,2.238,3.165,2.238,5.25
		s-0.742,3.842-2.227,5.25c-1.474,1.419-3.351,2.117-5.611,2.117h-4.541v7.215h-4.704V447.367z M204.833,451.602h-4.377v6.265h4.377
		c0.95,0,1.725-0.306,2.358-0.906c0.622-0.6,0.939-1.343,0.939-2.216c0-0.884-0.316-1.626-0.939-2.227
		C206.558,451.907,205.783,451.602,204.833,451.602L204.833,451.602z M232.013,446.908c1.157,0,2.249,0.153,3.296,0.448
		c1.037,0.306,1.888,0.666,2.565,1.091c0.666,0.437,1.255,0.862,1.769,1.288c0.513,0.426,0.884,0.797,1.113,1.092l0.349,0.458
		l-2.98,2.98c-0.066-0.076-0.153-0.196-0.251-0.338c-0.109-0.153-0.349-0.404-0.72-0.764c-0.371-0.349-0.786-0.666-1.223-0.939
		c-0.436-0.273-1.015-0.524-1.725-0.753c-0.72-0.229-1.441-0.338-2.194-0.338c-2.052,0-3.766,0.688-5.141,2.063
		c-1.375,1.375-2.074,3.089-2.074,5.141c0,2.052,0.698,3.766,2.074,5.152c1.375,1.375,3.089,2.063,5.141,2.063
		c0.796,0,1.561-0.109,2.292-0.328c0.731-0.229,1.332-0.48,1.812-0.786c0.48-0.306,0.906-0.6,1.266-0.906
		c0.371-0.306,0.633-0.578,0.797-0.797l0.251-0.328l2.827,2.991c-0.076,0.12-0.208,0.284-0.371,0.48s-0.546,0.557-1.124,1.059
		c-0.568,0.502-1.19,0.95-1.856,1.332c-0.644,0.382-1.517,0.731-2.576,1.048c-1.07,0.317-2.172,0.47-3.318,0.47
		c-3.351,0-6.167-1.125-8.47-3.351c-2.303-2.249-3.45-4.945-3.45-8.099c0-3.155,1.146-5.851,3.45-8.078
		C225.845,448.021,228.661,446.908,232.013,446.908L232.013,446.908z M254.007,447.367v9.562l8.623-9.562h5.479l-8.143,9.092
		l8.776,12.858h-5.48l-6.44-9.398l-2.816,3.122v6.276h-4.704v-21.951H254.007z M280.259,453.217c-1.375,1.397-2.052,3.1-2.052,5.13
		s0.677,3.733,2.052,5.119c1.364,1.386,3.034,2.085,4.999,2.085c1.965,0,3.624-0.699,4.988-2.085
		c1.375-1.386,2.052-3.089,2.052-5.119s-0.677-3.733-2.052-5.13c-1.364-1.386-3.023-2.085-4.988-2.085
		C283.293,451.133,281.623,451.831,280.259,453.217L280.259,453.217z M276.788,466.436c-2.303-2.249-3.45-4.945-3.45-8.099
		c0-3.155,1.146-5.851,3.45-8.078c2.303-2.238,5.119-3.351,8.47-3.351c3.34,0,6.156,1.113,8.459,3.351
		c2.303,2.227,3.45,4.923,3.45,8.078c0,3.154-1.146,5.851-3.45,8.099c-2.303,2.227-5.119,3.351-8.459,3.351
		C281.907,469.787,279.09,468.663,276.788,466.436L276.788,466.436z M305.833,469.317v-21.951h14.899v4.235h-10.184v17.716H305.833z
		 M333.176,453.217c-1.365,1.397-2.052,3.1-2.052,5.13s0.688,3.733,2.052,5.119c1.375,1.386,3.035,2.085,4.999,2.085
		c1.965,0,3.624-0.699,4.999-2.085c1.365-1.386,2.052-3.089,2.052-5.119s-0.688-3.733-2.052-5.13
		c-1.375-1.386-3.034-2.085-4.999-2.085C336.211,451.133,334.552,451.831,333.176,453.217L333.176,453.217z M329.705,466.436
		c-2.292-2.249-3.449-4.945-3.449-8.099c0-3.155,1.157-5.851,3.449-8.078c2.303-2.238,5.13-3.351,8.47-3.351
		c3.34,0,6.167,1.113,8.47,3.351c2.292,2.227,3.45,4.923,3.45,8.078c0,3.154-1.157,5.851-3.45,8.099
		c-2.303,2.227-5.13,3.351-8.47,3.351C334.836,469.787,332.009,468.663,329.705,466.436L329.705,466.436z M370.835,453.217
		c-1.365,1.397-2.052,3.1-2.052,5.13s0.688,3.733,2.052,5.119c1.375,1.386,3.034,2.085,4.999,2.085c1.965,0,3.635-0.699,4.999-2.085
		c1.365-1.386,2.052-3.089,2.052-5.119s-0.688-3.733-2.052-5.13c-1.365-1.386-3.035-2.085-4.999-2.085
		C373.869,451.133,372.21,451.831,370.835,453.217L370.835,453.217z M367.374,466.436c-2.303-2.249-3.449-4.945-3.449-8.099
		c0-3.155,1.146-5.851,3.449-8.078c2.303-2.238,5.119-3.351,8.46-3.351c3.34,0,6.167,1.113,8.47,3.351
		c2.303,2.227,3.449,4.923,3.449,8.078c0,3.154-1.146,5.851-3.449,8.099c-2.303,2.227-5.13,3.351-8.47,3.351
		C372.493,469.787,369.678,468.663,367.374,466.436L367.374,466.436z M401.136,465.093h4.704c0.83,0,1.539-0.273,2.107-0.808
		c0.568-0.535,0.852-1.157,0.852-1.867c0-0.709-0.284-1.331-0.852-1.866c-0.567-0.535-1.277-0.808-2.107-0.808h-4.704V465.093z
		 M405.982,469.317h-9.562v-21.951h15.216v4.235h-10.501v3.919h4.846c2.161,0,3.951,0.676,5.371,2.019
		c1.44,1.353,2.15,2.98,2.15,4.879c0,1.899-0.71,3.526-2.15,4.879C409.933,468.641,408.143,469.317,405.982,469.317L405.982,469.317
		z M440.354,447.367v21.951h-4.704v-17.716h-6.418v2.511c0,3.1-0.175,5.687-0.513,7.793c-0.35,2.096-0.852,3.7-1.517,4.824
		c-0.666,1.125-1.419,1.911-2.249,2.369s-1.801,0.688-2.936,0.688c-0.458,0-0.928-0.044-1.397-0.142
		c-0.458-0.098-0.808-0.186-1.037-0.262l-0.382-0.131v-4.486c0.524,0.207,1.037,0.316,1.561,0.328c0.819,0,1.485-0.251,1.987-0.742
		c0.502-0.491,0.928-1.572,1.266-3.231c0.338-1.659,0.513-3.984,0.513-6.975v-6.779H440.354z M461.574,460.072l-2.663-7.215
		l-2.674,7.215H461.574z M463.135,464.144h-8.459l-1.889,5.174h-5.021l8.634-21.951h5.01l8.623,21.951h-5.021L463.135,464.144z
		 M486.865,446.908c1.157,0,2.259,0.153,3.297,0.448c1.037,0.306,1.899,0.666,2.565,1.091c0.666,0.437,1.255,0.862,1.779,1.288
		c0.513,0.426,0.884,0.797,1.103,1.092l0.349,0.458l-2.98,2.98c-0.065-0.076-0.153-0.196-0.251-0.338
		c-0.109-0.153-0.349-0.404-0.72-0.764c-0.371-0.349-0.786-0.666-1.223-0.939c-0.437-0.273-1.015-0.524-1.725-0.753
		c-0.72-0.229-1.441-0.338-2.194-0.338c-2.052,0-3.766,0.688-5.141,2.063c-1.375,1.375-2.063,3.089-2.063,5.141
		c0,2.052,0.688,3.766,2.063,5.152c1.375,1.375,3.089,2.063,5.141,2.063c0.797,0,1.561-0.109,2.292-0.328
		c0.731-0.229,1.332-0.48,1.812-0.786c0.48-0.306,0.906-0.6,1.266-0.906c0.371-0.306,0.633-0.578,0.808-0.797l0.24-0.328
		l2.838,2.991c-0.088,0.12-0.218,0.284-0.382,0.48c-0.164,0.196-0.546,0.557-1.114,1.059c-0.578,0.502-1.201,0.95-1.855,1.332
		c-0.655,0.382-1.528,0.731-2.587,1.048c-1.07,0.317-2.172,0.47-3.318,0.47c-3.351,0-6.167-1.125-8.47-3.351
		c-2.303-2.249-3.449-4.945-3.449-8.099c0-3.155,1.146-5.851,3.449-8.078C480.698,448.021,483.514,446.908,486.865,446.908
		L486.865,446.908z M501.961,447.367h17.235v4.235h-6.255v17.716h-4.704v-17.716h-6.276V447.367z M545.743,447.367v21.951h-4.694
		v-8.94h-9.409v8.94h-4.704v-21.951h4.704v8.787h9.409v-8.787H545.743z M561.33,453.217c-1.365,1.397-2.052,3.1-2.052,5.13
		s0.688,3.733,2.052,5.119c1.375,1.386,3.035,2.085,4.999,2.085c1.965,0,3.635-0.699,4.999-2.085
		c1.365-1.386,2.052-3.089,2.052-5.119s-0.688-3.733-2.052-5.13c-1.365-1.386-3.034-2.085-4.999-2.085
		C564.365,451.133,562.705,451.831,561.33,453.217L561.33,453.217z M557.859,466.436c-2.292-2.249-3.438-4.945-3.438-8.099
		c0-3.155,1.146-5.851,3.438-8.078c2.314-2.238,5.13-3.351,8.47-3.351c3.34,0,6.167,1.113,8.47,3.351
		c2.292,2.227,3.45,4.923,3.45,8.078c0,3.154-1.157,5.851-3.45,8.099c-2.303,2.227-5.13,3.351-8.47,3.351
		C562.989,469.787,560.173,468.663,557.859,466.436L557.859,466.436z M586.916,469.317v-21.951h14.899v4.235h-10.184v17.716H586.916
		z M614.259,453.217c-1.375,1.397-2.052,3.1-2.052,5.13s0.677,3.733,2.052,5.119c1.365,1.386,3.035,2.085,4.999,2.085
		c1.965,0,3.624-0.699,4.988-2.085c1.375-1.386,2.063-3.089,2.063-5.119s-0.688-3.733-2.063-5.13
		c-1.365-1.386-3.023-2.085-4.988-2.085C617.294,451.133,615.623,451.831,614.259,453.217L614.259,453.217z M610.788,466.436
		c-2.303-2.249-3.449-4.945-3.449-8.099c0-3.155,1.146-5.851,3.449-8.078c2.303-2.238,5.13-3.351,8.47-3.351
		c3.34,0,6.156,1.113,8.46,3.351c2.303,2.227,3.449,4.923,3.449,8.078c0,3.154-1.146,5.851-3.449,8.099
		c-2.303,2.227-5.119,3.351-8.46,3.351C615.918,469.787,613.091,468.663,610.788,466.436L610.788,466.436z M656.927,446.908
		c1.146,0,2.249,0.153,3.286,0.448c1.037,0.306,1.899,0.666,2.565,1.091c0.666,0.437,1.266,0.862,1.779,1.288
		c0.513,0.426,0.884,0.797,1.102,1.092l0.36,0.458l-2.991,2.98c-0.066-0.076-0.142-0.196-0.251-0.338
		c-0.109-0.153-0.349-0.404-0.72-0.764c-0.371-0.349-0.775-0.666-1.211-0.939c-0.448-0.273-1.015-0.524-1.736-0.753
		c-0.709-0.229-1.441-0.338-2.183-0.338c-2.063,0-3.777,0.688-5.141,2.063c-1.386,1.375-2.074,3.089-2.074,5.141
		c0,2.052,0.688,3.766,2.074,5.152c1.365,1.375,3.078,2.063,5.141,2.063c0.786,0,1.55-0.109,2.281-0.328
		c0.731-0.229,1.332-0.48,1.812-0.786c0.48-0.306,0.906-0.6,1.277-0.906c0.371-0.306,0.633-0.578,0.797-0.797l0.24-0.328
		l2.838,2.991c-0.087,0.12-0.207,0.284-0.382,0.48c-0.164,0.196-0.535,0.557-1.113,1.059s-1.201,0.95-1.856,1.332
		c-0.655,0.382-1.517,0.731-2.587,1.048c-1.07,0.317-2.172,0.47-3.308,0.47c-3.351,0-6.178-1.125-8.481-3.351
		c-2.292-2.249-3.45-4.945-3.45-8.099c0-3.155,1.157-5.851,3.45-8.078C650.749,448.021,653.576,446.908,656.927,446.908
		L656.927,446.908z M676.87,447.367l5.174,10.348l4.399-10.348h5.021l-7.684,16.472c-0.906,1.888-1.965,3.34-3.177,4.312
		c-1.211,0.982-2.718,1.473-4.519,1.473c-0.415,0-0.83-0.044-1.245-0.12c-0.426-0.087-0.731-0.164-0.938-0.251l-0.317-0.088v-4.071
		c0.513,0.196,1.146,0.306,1.878,0.306c1.572,0,2.783-0.732,3.613-2.194l0.633-1.103l-7.838-14.736H676.87z M694.476,465.093h1.255
		c0.087-0.088,0.207-0.218,0.36-0.393c0.164-0.186,0.437-0.589,0.84-1.223c0.393-0.644,0.742-1.343,1.048-2.107
		c0.294-0.764,0.578-1.801,0.829-3.111c0.251-1.299,0.371-2.685,0.371-4.148v-6.746h15.206v17.727h2.674v8.765h-4.716v-4.541
		h-13.164v4.541h-4.704V465.093z M703.874,454.112c0,1.463-0.12,2.838-0.36,4.137c-0.24,1.299-0.524,2.336-0.852,3.133
		c-0.338,0.797-0.666,1.496-1.004,2.074c-0.338,0.578-0.611,0.993-0.84,1.255l-0.382,0.382h9.245v-13.492h-5.807V454.112z
		 M736.228,460.072l-2.663-7.215l-2.674,7.215H736.228z M737.789,464.144h-8.46l-1.888,5.174h-5.021l8.634-21.951h5.01l8.623,21.951
		h-5.021L737.789,464.144z"/>
</g>
</svg>
