<svg width="512" height="512" viewBox="0 0 512 512" fill="none" xmlns="http://www.w3.org/2000/svg">
<rect width="512" height="512" rx="100" fill="#00BBF6"/>
<path d="M414.367 157.672C403.039 163.598 385.977 166.336 380.32 167.125C380.273 166.852 380.227 166.59 380.18 166.328C399.41 154.434 405.297 132.039 405.297 132.039C393.387 138.848 382.891 142.625 374.984 144.719C370.539 145.91 366.91 146.555 364.301 146.914C352.316 134.625 335.582 127 317.059 127C280.613 127 251.062 156.543 251.062 193C251.062 194.312 251.098 195.617 251.184 196.91C251.359 200.07 251.762 203.176 252.383 206.195C234.742 205.934 171.066 200.523 118.301 139.23C118.301 139.23 88.918 190.496 138.316 225.516C138.316 225.516 118.301 224.891 107.676 217.387C107.676 217.387 104.551 266.785 161.445 282.41C161.445 282.41 141.441 287.418 131.43 283.039C131.43 283.039 141.438 325.555 191.457 328.688C191.457 328.688 155.582 361.531 97 356.805C125.812 375.047 159.973 385.605 196.598 385.605C299.578 385.605 383.062 302.125 383.062 199.145C383.062 197.859 383.051 196.574 383.023 195.289C383.051 194.527 383.062 193.77 383.062 193C383.062 192.465 383.051 191.93 383.043 191.395C402.082 178.707 414.367 157.672 414.367 157.672V157.672Z" fill="white"/>
</svg>
